<?xml version="1.0" standalone="no"?>
<!DOCTYPE svg PUBLIC "-//W3C//DTD SVG 20010904//EN"
 "http://www.w3.org/TR/2001/REC-SVG-20010904/DTD/svg10.dtd">
<svg version="1.0" xmlns="http://www.w3.org/2000/svg"
 width="900.000000pt" height="900.000000pt" viewBox="0 0 900.000000 900.000000"
 preserveAspectRatio="xMidYMid meet">
<metadata>
Created by potrace 1.11, written by Peter Selinger 2001-2013
</metadata>
<g transform="translate(0.000000,900.000000) scale(0.100000,-0.100000)"
fill="#000000" stroke="none">
<path d="M4235 8990 c-38 -5 -127 -13 -197 -19 -329 -28 -740 -123 -1098 -254
-412 -150 -867 -404 -1210 -675 -271 -215 -544 -487 -754 -752 -37 -47 -74
-93 -82 -103 -109 -136 -299 -446 -415 -677 -202 -403 -347 -844 -409 -1245
-11 -71 -24 -155 -30 -185 -35 -205 -46 -689 -22 -960 40 -448 150 -913 308
-1299 19 -47 41 -99 47 -116 32 -80 213 -425 285 -543 350 -575 834 -1074
1382 -1427 58 -38 129 -84 159 -103 61 -40 424 -225 521 -266 215 -92 506
-189 705 -236 50 -11 108 -25 130 -31 80 -19 392 -67 485 -74 52 -4 104 -9
115 -12 11 -2 128 -7 260 -10 319 -7 543 11 900 73 137 24 306 62 395 89 209
64 271 84 380 125 798 301 1509 839 2022 1530 202 272 370 563 520 900 175
393 305 908 349 1380 28 304 19 729 -21 975 -5 33 -19 121 -31 195 -11 74 -27
160 -34 190 -8 30 -26 104 -41 164 -109 447 -334 950 -607 1361 -67 100 -256
358 -276 375 -3 3 -45 50 -93 105 -171 197 -429 440 -638 599 -684 523 -1453
825 -2320 912 -180 18 -583 26 -685 14z m-580 -1770 c66 -7 241 -15 390 -18
l269 -7 4 -1162 4 -1163 -870 0 -870 0 -78 26 c-191 64 -348 168 -529 349
-230 230 -359 447 -405 682 -8 41 -11 114 -8 210 5 120 10 165 32 238 118 403
449 693 919 804 89 21 279 49 367 54 113 7 659 -3 775 -13z m2776 -9 c205 -33
346 -75 490 -146 114 -56 183 -102 266 -177 197 -179 302 -361 354 -613 16
-80 16 -252 0 -345 -38 -214 -171 -446 -380 -663 -181 -188 -362 -308 -557
-372 l-77 -25 -869 0 -869 0 1 998 c1 548 4 1072 7 1165 l6 167 176 0 c97 0
244 5 326 10 83 6 215 13 295 16 80 4 147 8 149 10 2 2 128 2 280 0 212 -4
305 -9 402 -25z m-2113 -3983 l-4 -1362 -80 2 c-99 4 -641 -15 -833 -29 -233
-16 -715 -13 -856 6 -395 53 -678 183 -917 421 -205 204 -324 434 -383 739
-24 122 -24 389 -1 495 70 312 262 561 590 762 178 110 421 221 621 284 44 14
89 29 100 34 11 5 413 9 894 9 l873 1 -4 -1362z m2353 1313 c223 -75 390 -151
571 -258 435 -257 648 -592 648 -1021 0 -183 -57 -451 -127 -601 -188 -398
-543 -678 -990 -780 -128 -30 -229 -42 -403 -51 -140 -6 -667 3 -756 14 -71 9
-719 28 -765 23 l-47 -6 -5 127 c-3 70 -6 684 -7 1365 l-1 1237 869 0 870 0
143 -49z"/>
<path d="M3090 6974 c-325 -44 -529 -168 -634 -386 -96 -200 -125 -425 -91
-723 56 -500 280 -734 769 -800 78 -11 202 -15 433 -15 l323 0 0 805 c0 557
-3 820 -11 857 -31 144 -112 223 -270 262 -83 20 -366 20 -519 0z"/>
<path d="M5477 6966 c-135 -40 -209 -113 -241 -239 -14 -59 -16 -156 -16 -872
l0 -805 343 1 c336 1 386 4 537 36 264 55 436 177 543 383 117 228 152 690 71
966 -71 247 -207 395 -439 482 -119 45 -331 72 -548 71 -150 0 -182 -3 -250
-23z"/>
<path d="M3031 4389 c-135 -8 -251 -28 -351 -61 -409 -132 -670 -544 -670
-1057 0 -215 46 -420 137 -611 59 -123 110 -198 197 -289 150 -155 298 -234
525 -281 77 -15 138 -20 273 -20 495 0 691 114 738 430 8 52 10 352 8 985 l-3
910 -365 1 c-201 0 -421 -3 -489 -7z"/>
<path d="M5225 4388 c-3 -8 -4 -441 -2 -964 3 -826 5 -955 19 -999 82 -261
274 -355 731 -355 290 0 494 58 672 191 335 249 512 743 440 1224 -37 247
-129 444 -278 602 -123 129 -252 206 -428 257 -139 40 -248 48 -712 53 -364 3
-438 2 -442 -9z"/>
</g>
</svg>
