<svg version="1" xmlns="http://www.w3.org/2000/svg" width="800" height="800" viewBox="0 0 600.000000 600.000000"><path d="M560.4.6c-4.9 1.1-12.3 3.9-13.7 5.2-1.5 1.4-1.7 2.6-1.2 7.2.3 3 .8 6.3 1.1 7.2 1.2 4.1 1.2 5.8 0 5.8-1.5 0-3.1 1.8-11.1 12.5-3.2 4.4-6.3 8.4-6.7 9-.4.5-1.8 2.3-3.1 4-18.2 23.2-49.8 66-58.3 78.8l-2.5 3.8-3.2-1.9c-1.8-1.1-10.2-6.3-18.7-11.6-8.5-5.2-16-9.6-16.7-9.6-2.5 0-7.3 10.9-7.5 17-.1 4.5 1.3 5.5 5 3.6 1.7-.9 4.2-1.6 5.5-1.6 2.8 0 14.9 5.9 19 9.2l2.8 2.3-15.1 25.3c-8.3 13.9-15.5 25-16.1 24.7-.5-.4-3.1-3.9-5.8-7.8-8.6-12.7-12.3-16.2-20.4-19.3-8.6-3.3-8.6-3.3-9.3-6.9-.9-5.1-4.5-12.2-6.7-13.4-1.2-.6-4.5-1.3-7.2-1.4l-5-.2-3.5-6.9c-4.3-8.4-6.8-10.4-14-10.9-5.4-.3-5.5-.4-8-5.1-1.4-2.6-3.9-6.4-5.6-8.4-3.1-3.6-3.3-3.7-10-3.6l-6.9.1-5.7-7.3c-6.7-8.5-9.7-9.9-16.5-7.7-4.1 1.4-4.2 1.4-10.9-2.6-3.7-2.3-7.5-4.1-8.3-4.2-3.3-.2-6.7.3-9.9 1.7-3.2 1.3-3.5 1.2-8.5-2.5-7.9-5.9-8.8-6.2-17.4-5.7-6.8.5-8.6.2-13.2-1.9-7.4-3.5-13.4-7.9-22.1-16.2-21.3-20.5-35.1-25.6-69-25.6-19.1 0-33.2 2-37.2 5.3-1.8 1.5-2 2.1-1.1 3.1 1.3 1.3 1.7 1.4 9.8 2.4 9.6 1.2 21 4.6 30 8.9 5 2.4 11.1 4.9 13.5 5.5 11.3 2.9 19.6 9.7 27 22.2 7.7 13 22.1 25.1 34.8 29.4 2.6.9 5.7 2.3 6.9 3 2.7 1.8 9 5.4 12.4 7.1 3.4 1.8 6.9 2.3 10.1 1.3 1.6-.4 3-.3 3.3.2 1.1 1.7 9.4 6.9 11.7 7.3 1.3.2 3.9-.3 5.8-1.1 2.5-1 3.6-1.1 3.9-.2.2.6 2.2 3.4 4.6 6.3 4.1 5 4.3 5.1 9.2 5 3.1-.1 5 .3 5 1 0 .6.3 2.6.8 4.5.8 3.7 1 3.7-6-.9-13-8.8-34-17.7-41-17.5-3.9 0-2.9 3.9 2 7.4 4.8 3.4 9.9 8.1 9.3 8.6-.2.1-5.5-.8-11.8-2.1-6.3-1.3-13.2-2.6-15.2-2.9-2.1-.3-8.4-1.9-14-3.4-5.7-1.6-12.1-3.2-14.3-3.6-2.2-.5-4.6-.9-5.3-1.1-19.7-3.9-41.9-3.8-56.7.2-1.6.5-3.2.9-3.5.9-.3.1-1.2.4-2 .7-.8.3-3.7 1.4-6.5 2.3-10.2 3.6-36.8 17.9-38.7 20.8-1.1 1.7 1.3 3.9 3.6 3.3 2.5-.6 9.2-1.4 15.8-2 4.1-.3 5.1 0 7.8 2.5 1.6 1.6 3.5 2.9 4.2 3 .7 0-2.7.9-7.7 1.9-34.3 7-72.1 24.6-98.7 45.8L0 217v383h233.5c128.4 0 233.5-.2 233.5-.5 0-.7-9.1-5.2-17.2-8.4-12.1-4.8-37.2-10.1-54.4-11.6-3.1-.3-6.2-1.2-7.1-2-.8-.8-1.7-1.5-2.1-1.6-.4 0-1.4-.2-2.2-.3-1.5-.3-13.3-1.3-26-2.1-3.6-.2-13.7-.7-22.5-1-24.1-.8-31.4-1.6-45.3-4.7-9.1-2-9.2-2.1-7.7-4.2.8-1.1 1.9-3 2.5-4.1.5-1.1 2.9-5.1 5.3-8.8l4.4-6.8 3.4 4.6c6.7 9.1 7.1 9.5 12.4 10.1 7.6.9 16.1.7 18.5-.6 2-1.1 4.2-5 4.4-7.9.1-1 2.2-1.8 6.6-2.6 9-1.5 14.2-4.5 22.7-13.1 5.8-6 7.7-7.3 9.5-6.9 5.4 1.2 8.8 1.5 16.3 1.6 15.6.1 24.1-2.2 35.8-9.8 7.9-5.1 8-5.1 15.5-12.3 13.2-12.5 22.9-29.9 28.3-50.5 1.7-6.4 2.1-22.6.7-27.5-1.3-4.6-2.1-6.1-3.8-7-2.6-1.4-3.6.5-3.8 7-.2 6.7-.8 10.9-2.2 14.5-1.3 3.5-1.6 3.1-2.3-3.2-1-10-7.8-19.9-15.5-22.4-5.1-1.7-6.1-.1-3.9 6.2 7 19.7-7.7 47.9-30.4 57.9-7.5 3.3-19.2 3.3-26.2 0-5.8-2.8-14.7-11.3-17.2-16.7-4.1-8.6-1.9-14.8 10.4-29.1 3.9-4.5 7.7-9.4 8.5-11 3-5.8 3.9-17.7 2.1-29.2-.3-2.5-.7-5-.7-5.5-.1-.6 2.9-6.2 6.6-12.7l6.7-11.6 5.2-1.2c4.4-1.1 11.8-3.7 22.7-8.2 3.2-1.3 3.6-1.5 15.3-7.7 10.8-5.6 11-5.2 3.1 4.5-4.5 5.6-5.1 8.3-1.7 8.5 1 0 3.7.2 6 .3 4.6.2 13.1-1.6 17.7-3.9 1.6-.8 3.1-1.3 3.3-1.1.4.4-7.1 15.2-9.7 19.3-1.1 1.7-1.2 2.5-.3 3.4 1.5 1.5 16.8-2.8 27.1-7.7 4.1-1.8 7.6-3.4 7.9-3.4.7 0-.7 3.9-3.4 9.8-1.4 2.9-2.2 5.9-2 6.7 1.1 2.8 11.5-.5 20.2-6.5 4.9-3.4 5.5-2.8 2.6 2.6-3 5.5-1.9 6.7 4.8 5.9 7.1-.8 16.7-3.2 20.3-5.1 3.4-1.8 3.5-1.1 1.2 6.6-1.9 6.3-1.2 7.1 5.6 6.5 5.4-.4 10.4-1.8 13.6-4 2.4-1.5 2.4-1.5 2.4 1.8 0 5.8-2.9 12.1-8.5 18.5-5.2 5.9-6.2 9.2-3 9.2.8 0 8-2.5 16.2-5.6 11.6-4.5 16.4-6.8 22.1-11.1 4-3.1 7.5-5.9 7.7-6.4.3-.4 0-2.9-.6-5.6-2.1-9.2-2.1-9.4.6-12.8 2.2-3 2.3-3.5 1-4.9-.8-.8-2.5-1.3-3.8-1-1.2.2-3.7-.1-5.6-.7-3.2-1.1-3.3-1.3-2.8-5.5.2-2.5 1.8-6.5 3.7-9.4 2-3.1 2.9-5.5 2.4-6s-4.1-1.2-7.9-1.6c-3.9-.3-7.7-1.2-8.5-1.9-12.8-10.5-68.8-57.2-69.5-58-1.4-1.5-7.5-10.5-7.5-11.1 0-.3-.5-1-1.1-1.7-.5-.7-3.7-5.3-6.9-10.4-3.3-5-8.5-11.9-11.6-15.3-3.2-3.3-6.4-6.9-7.1-8-1.5-2.1-1.8-1.3 5.2-12.5 1.7-2.8 9.2-14.7 16.5-26.7l13.4-21.6 2.6 2.1c3.6 3 10.2 11.2 11.6 14.5.6 1.5.9 3.6.7 4.7-.5 3 .6 6.5 2 6.5 2 0 8.9-4 11.9-6.8 5.2-4.8 5.1-4.9-12.1-21.9-8.9-8.6-16.1-16.3-16.1-16.9 0-.7 1.4-3.7 3.1-6.6 4.1-6.9 17.6-33.4 21.4-41.8 1.6-3.6 5.1-11.2 7.8-17 6.6-14 11.3-24.2 14.7-31.5 1.5-3.3 4.4-9.6 6.5-14 4.4-9.5 7.4-16.3 7.5-17v-1.3c0-.5 2.4-1.4 5.4-2.1 8.2-1.8 9.1-2.8 8.9-10.2-.2-6.5-2.1-15.2-4.3-20.1-1.6-3.4-7.8-4.7-14.6-3.2zM299.5 158c.3.5.1 1-.4 1-.6 0-1.1-.5-1.1-1 0-.6.2-1 .4-1 .3 0 .8.4 1.1 1zm38.3 165.9c-.6.9-3.7 3.6-6.9 6.1-9.4 7.2-9.9 7.6-9.9 9.4 0 2 3 3.2 8.8 3.5 1 .1 1 .5 0 2.1-1.6 2.5-3.4 2.5-7.7-.1l-3.4-2 .6-6.2c.3-3.4 1.3-7.9 2.1-9.9 1.6-3.6 1.6-3.6 7.7-3.7 3.4 0 6.3-.2 6.5-.4.2-.2 1-.4 1.8-.4 1 0 1.1.4.4 1.6zm-161 12.4c-.1 7.5-.1 7.5 8 12.2 4.2 2.4 8.3 4.9 9.1 5.4 1.2.7.5 1.9-3.2 5.7-3.5 3.7-4.3 5.2-3.6 6.5 1.7 3.3 9.9 9.7 17.4 13.4 4.1 2.1 7.5 4 7.5 4.1 0 .2-1.1 1.5-2.5 3-3 3.2-3.1 4.4-.7 7 .9 1.1 2.8 3.6 4.2 5.6 7.3 10.5 17.6 21 23 23.4 2.9 1.3 4.6 3.4 9.1 11.2 3 5.2 7.1 12.5 9.2 16.1 2.1 3.6 4.9 8.9 6.4 11.7l2.6 5.1-9.4 16.5c-5.2 9.1-14.6 25.8-20.9 37.1-6.3 11.3-12 20.6-12.6 20.7-2.3 0-25.3-12.3-31.9-17.2-13.5-10-33.1-31.2-39.9-43.3-.9-1.7-3.2-5.7-5-8.9l-3.4-6 2.4-1.9c1.3-1 2.4-2.5 2.4-3.3 0-.8-2-6.3-4.4-12.2-6.9-16.7-8.8-24.7-9-37.7-.4-18.4 4.8-40.7 12.6-53.8 6.8-11.5 17.6-21.5 24.7-22.7 7.8-1.3 7.9-1.2 7.9 2.3zm168.6 182.3c2.8 1.1 1.7 2-2.4 2.2-5.4.4-5.2-.5.7-2.7.1-.1.8.2 1.7.5z"/></svg>