<?xml version="1.0" standalone="no"?>
<!DOCTYPE svg PUBLIC "-//W3C//DTD SVG 20010904//EN"
 "http://www.w3.org/TR/2001/REC-SVG-20010904/DTD/svg10.dtd">
<svg version="1.0" xmlns="http://www.w3.org/2000/svg"
 width="1369.000000pt" height="1369.000000pt" viewBox="0 0 1369.000000 1369.000000"
 preserveAspectRatio="xMidYMid meet">
<metadata>
Created by potrace 1.14, written by Peter Selinger 2001-2017
</metadata>
<g transform="translate(0.000000,1369.000000) scale(0.100000,-0.100000)"
fill="#000000" stroke="none">
<path d="M6802 11408 c-2 -107 -5 -164 -9 -173 -2 -7 -32 -10 -71 -10 -97 2
-100 0 -97 -47 3 -38 23 -66 35 -50 7 10 124 9 131 -1 3 -4 5 -25 3 -45 -1
-20 -4 -93 -5 -162 -2 -126 -10 -157 -69 -285 -12 -25 -32 -79 -31 -83 1 -1
-5 -15 -13 -30 -8 -15 -52 -121 -99 -237 -47 -115 -93 -228 -103 -250 -10 -22
-19 -44 -20 -50 -3 -12 -177 -437 -236 -577 -22 -53 -38 -103 -35 -111 4 -10
17 -13 46 -10 l41 4 1 -58 c3 -229 1 -865 -3 -868 -2 -3 -48 -5 -101 -6 -92
-1 -97 -2 -98 -22 -1 -24 -1 -86 0 -104 1 -6 18 -13 39 -15 l37 -3 0 -475 c0
-376 -3 -479 -13 -490 -20 -23 -282 -421 -282 -429 0 -4 -11 -18 -25 -31 -18
-17 -25 -19 -26 -9 0 8 -1 462 -1 1009 -1 547 -3 1001 -6 1008 -4 12 -70 53
-187 117 -27 15 -57 34 -66 41 -8 8 -19 14 -23 14 -5 0 -50 25 -101 55 -86 52
-107 58 -145 42 -26 -11 -130 -46 -131 -44 0 1 -3 49 -5 107 -10 232 -7 214
-34 220 -35 9 -59 1 -58 -18 0 -10 -3 -91 -5 -181 -6 -165 -8 -177 -44 -183
-5 -1 -37 -12 -73 -26 -36 -13 -69 -25 -75 -26 -5 -1 -14 -4 -20 -8 -5 -3 -26
-10 -45 -16 -19 -6 -80 -27 -135 -47 -55 -20 -107 -38 -115 -40 -8 -2 -40 -13
-70 -25 -30 -11 -63 -23 -72 -27 -17 -5 -18 -32 -18 -379 0 -347 -1 -374 -18
-383 -19 -10 -140 -52 -159 -55 -7 -1 -16 -5 -19 -9 -4 -4 -17 -7 -29 -7 -19
0 -22 6 -22 48 -1 26 -2 49 -3 52 -1 3 -3 54 -4 113 -2 59 -6 110 -9 113 -7 7
-66 8 -73 1 -3 -3 -7 -50 -8 -104 -1 -54 -5 -104 -9 -111 -5 -7 -3 -12 3 -12
7 0 9 -8 5 -21 -4 -12 -7 -45 -7 -74 -1 -51 -2 -52 -37 -66 -20 -7 -40 -12
-45 -11 -4 2 -14 -3 -22 -9 -8 -6 -14 -8 -14 -4 0 4 -6 3 -12 -2 -15 -12 -176
-66 -181 -61 -2 2 -10 -2 -18 -8 -8 -6 -42 -19 -76 -29 -52 -17 -62 -23 -65
-45 -2 -14 -3 -615 -2 -1336 l0 -1311 -60 -29 c-113 -55 -222 -142 -415 -335
-150 -149 -213 -217 -371 -404 -24 -27 -47 -51 -51 -53 -5 -2 -9 -7 -9 -11 0
-4 -13 -23 -29 -42 -135 -156 -147 -176 -93 -165 26 6 62 11 132 20 19 3 44 7
56 10 12 2 45 7 75 11 30 4 56 8 59 10 3 1 32 6 65 10 32 3 62 8 65 10 3 1 27
6 53 9 26 4 70 11 98 16 27 5 53 9 57 9 4 -1 9 0 12 1 6 2 33 7 85 14 22 3 54
8 70 11 17 3 44 7 60 10 17 3 39 7 50 9 11 2 56 9 100 16 44 6 91 13 105 16
14 3 41 7 60 9 19 3 45 7 57 10 12 3 41 7 65 10 24 3 86 12 138 20 52 8 113
17 135 20 22 3 54 7 70 10 52 8 139 18 158 19 9 0 17 3 17 6 0 3 14 5 31 4 16
0 53 3 81 7 28 5 79 11 112 14 34 4 79 9 101 11 22 3 65 7 95 9 30 3 78 7 105
9 226 20 649 27 825 13 152 -12 205 -17 230 -22 14 -3 45 -8 70 -11 25 -3 52
-7 60 -9 8 -2 35 -7 60 -10 24 -4 52 -11 62 -16 10 -5 18 -8 18 -5 0 3 24 -2
53 -11 28 -8 57 -16 62 -17 6 -1 37 -11 70 -21 33 -10 65 -19 70 -21 19 -4
171 -72 274 -122 l103 -51 57 26 c31 14 90 41 131 61 108 50 210 92 236 96 12
3 31 9 41 14 18 10 168 50 213 57 14 2 36 7 50 10 31 7 75 14 115 19 17 2 46
7 65 10 240 41 797 41 1165 0 74 -8 143 -14 205 -19 30 -2 55 -5 55 -5 0 -1
14 -3 30 -5 17 -2 48 -6 70 -9 22 -3 63 -8 90 -11 52 -6 90 -13 90 -15 0 0 18
-3 40 -5 22 -2 59 -6 82 -9 58 -9 107 -16 218 -31 22 -3 51 -8 65 -12 27 -6
41 -8 112 -17 26 -3 58 -8 70 -10 13 -3 39 -8 58 -10 46 -7 278 -45 310 -51
14 -3 45 -8 70 -11 25 -3 54 -8 65 -11 11 -2 34 -6 50 -8 65 -9 113 -16 219
-34 61 -11 131 -22 156 -26 25 -3 56 -8 70 -10 14 -2 41 -6 60 -9 20 -2 47 -7
60 -10 14 -3 43 -8 65 -10 22 -3 58 -7 80 -11 95 -14 112 -16 150 -21 22 -2
56 -7 75 -10 67 -9 115 -16 150 -19 19 -2 58 -6 85 -9 82 -10 124 -15 240 -26
61 -6 133 -13 160 -16 165 -16 602 -27 609 -15 3 4 -69 83 -159 177 -91 93
-165 172 -165 175 0 3 -59 7 -132 8 -72 1 -134 4 -137 6 -4 2 -6 105 -6 230 0
125 -3 229 -8 232 -4 2 -803 5 -1774 5 -1747 0 -1765 0 -1734 19 17 10 35 19
40 19 5 0 14 7 21 15 7 8 21 15 30 15 10 0 20 4 22 8 2 4 53 35 113 68 l110
61 1318 -1 c726 -1 1323 2 1328 5 6 3 8 60 7 130 l-3 124 -205 1 c-261 2 -243
0 -237 23 2 10 1 25 -4 33 -4 7 -4 20 1 28 4 7 4 24 0 36 -6 14 -5 26 0 29 6
3 6 15 0 30 -6 15 -6 27 0 30 6 3 6 15 0 30 -6 15 -6 27 0 30 6 3 6 15 0 30
-6 15 -6 27 0 30 6 3 6 15 0 30 -6 15 -6 27 0 30 6 3 6 15 0 30 -6 15 -6 27 0
30 5 3 6 16 2 28 -8 25 -8 74 1 83 3 3 1 19 -3 35 -5 16 -5 31 0 34 4 3 4 20
0 39 -4 19 -5 37 -2 40 7 8 6 131 -1 143 -3 5 -2 15 3 22 4 8 4 27 0 42 -5 16
-5 31 0 34 4 3 4 20 0 39 -4 19 -5 37 -2 40 2 3 5 36 6 73 l1 68 60 1 c33 1
63 2 68 3 4 1 7 30 7 64 0 61 -3 68 -52 138 -28 41 -55 76 -60 77 -4 2 -8 8
-8 13 0 6 -15 30 -32 54 -41 54 -48 64 -152 210 -47 66 -89 125 -93 130 -5 6
-53 73 -108 150 -105 148 -111 157 -135 183 -14 15 -45 17 -303 17 l-287 -1 0
266 0 267 42 1 c23 1 43 4 45 6 2 2 5 31 7 65 l3 62 -39 20 c-21 11 -38 25
-38 31 0 16 -40 99 -58 121 -8 9 -12 17 -9 17 8 0 -53 81 -97 130 -50 55 -115
104 -183 138 -54 28 -85 38 -178 58 -42 9 -213 3 -231 -9 -6 -3 -23 -8 -39
-11 -30 -5 -147 -60 -173 -80 -34 -26 -150 -144 -175 -179 -16 -21 -48 -76
-72 -124 -33 -64 -51 -89 -72 -98 -27 -11 -28 -15 -27 -69 3 -77 7 -84 42 -78
22 3 30 0 33 -15 4 -15 3 -448 0 -503 -1 -14 -37 -16 -291 -16 -159 0 -292 -3
-296 -6 -6 -7 74 -130 89 -136 4 -2 7 -10 7 -18 0 -8 4 -14 8 -14 4 0 16 -13
25 -30 10 -16 23 -35 30 -42 7 -7 26 -33 42 -58 17 -25 78 -112 136 -195 225
-319 279 -398 279 -406 0 -5 -40 -8 -89 -8 -86 1 -89 2 -110 29 -11 16 -21 31
-21 34 0 3 -11 17 -25 32 -14 15 -25 33 -25 40 0 7 -4 14 -9 16 -5 2 -44 53
-87 113 -43 61 -82 113 -88 117 -7 5 -7 8 -1 8 6 0 6 3 0 8 -6 4 -35 42 -65
85 -30 43 -66 94 -80 112 -14 19 -41 57 -60 84 -19 28 -38 51 -41 51 -3 0 -50
-62 -104 -137 -54 -76 -117 -162 -138 -191 l-39 -54 -57 79 c-32 43 -95 130
-140 193 -45 63 -88 122 -94 130 -7 9 -27 37 -44 62 l-33 46 0 451 0 450 37 3
38 3 0 65 0 65 -70 2 c-39 1 -84 2 -100 2 l-31 1 1 462 0 462 44 3 c24 1 46 5
49 7 4 5 -92 239 -147 361 -11 22 -31 69 -46 105 -15 36 -33 79 -40 95 -7 17
-43 102 -80 190 -37 88 -76 178 -86 200 -22 50 -41 100 -38 100 2 0 -5 14 -14
30 -16 28 -66 143 -107 245 -10 25 -32 77 -49 116 -28 66 -30 79 -34 223 -5
172 0 186 53 171 17 -5 30 -5 30 -1 0 4 18 6 39 4 44 -3 51 6 48 62 l-2 30
-82 0 c-45 0 -84 3 -87 5 -3 3 -6 52 -8 108 l-3 102 -41 0 c-40 0 -42 -1 -42
-32z m9 -1045 c0 -5 2 -129 4 -278 2 -148 5 -343 6 -433 2 -115 -1 -166 -9
-174 -7 -7 -12 -8 -12 -4 0 5 -7 3 -15 -4 -8 -7 -15 -8 -15 -4 0 5 -67 9 -150
8 -119 -1 -150 1 -150 12 0 12 118 341 140 389 5 11 32 83 60 160 28 77 55
149 60 160 5 11 21 55 37 97 24 68 41 95 44 71z m509 -1081 c12 -2 15 -19 14
-92 0 -50 -4 -93 -7 -96 -4 -4 -17 0 -30 9 -58 38 -140 15 -153 -43 -3 -14 -6
-177 -6 -362 l0 -338 -78 0 -77 0 -1 328 c0 180 -1 329 -2 332 -1 3 -3 14 -5
24 -6 34 -57 75 -98 80 -56 7 -103 -19 -126 -68 -16 -37 -18 -69 -17 -359 1
-175 -1 -322 -4 -327 -4 -7 -91 -14 -137 -11 -10 1 -13 77 -13 347 0 310 -2
349 -17 375 -30 51 -106 57 -155 12 -10 -9 -19 -14 -20 -12 -3 8 -5 194 -2
199 2 5 890 6 934 2z m-2009 -329 c4 -33 3 -2967 -1 -2976 -4 -10 -102 -12
-430 -12 l-425 0 -63 -85 c-35 -47 -72 -95 -83 -107 -10 -13 -16 -23 -11 -23
4 0 2 -4 -3 -8 -6 -4 -35 -41 -65 -82 -66 -90 -64 -88 -93 -125 -13 -16 -72
-97 -132 -180 -60 -82 -112 -152 -115 -155 -4 -3 -9 -13 -13 -22 -6 -16 2 -18
86 -18 l92 0 -1 -183 c-1 -100 -2 -193 -3 -205 -1 -21 -10 -16 -73 46 -122
117 -152 142 -165 142 -7 0 -13 3 -13 8 0 8 -68 45 -112 61 -19 7 -28 18 -29
33 -4 149 0 2559 5 2566 3 6 23 16 44 22 20 7 89 30 152 52 63 22 120 41 125
43 6 1 23 7 38 13 16 7 31 12 34 12 3 0 50 16 105 36 54 19 107 37 116 39 9 2
35 11 57 19 22 8 42 13 43 11 2 -2 5 -405 5 -897 l2 -893 260 0 260 -1 105 37
c178 63 161 51 158 111 -4 64 -5 64 -128 18 -47 -17 -89 -32 -95 -33 -5 -2
-15 -6 -22 -10 -17 -11 -20 0 -22 80 l-2 71 38 13 c21 7 43 14 48 16 23 6 161
59 171 65 17 11 17 108 1 108 -8 0 -56 -15 -108 -33 -156 -55 -147 -56 -146 3
0 27 -2 52 -5 55 -3 4 -4 15 -1 25 5 19 39 35 182 84 41 15 78 32 83 39 9 14
11 91 2 100 -3 3 -62 -14 -130 -38 -68 -24 -125 -43 -125 -42 -1 1 -3 18 -4
37 -1 19 -4 46 -5 60 -5 51 -3 52 95 91 17 7 91 31 105 34 43 11 60 20 64 33
6 20 5 102 -1 102 -7 0 -106 -31 -128 -40 -30 -12 -117 -40 -127 -40 -4 0 -8
33 -8 74 l0 75 53 19 c28 10 89 32 134 47 l81 29 0 50 c1 27 -1 53 -3 56 -4 6
-209 -59 -233 -74 -7 -4 -16 -5 -22 -1 -12 7 -12 143 1 150 11 8 210 76 227
79 23 4 32 29 30 79 -1 26 -3 47 -4 47 -2 0 -56 -18 -121 -40 -65 -22 -124
-40 -131 -40 -9 0 -12 20 -11 74 l1 74 92 32 c50 17 110 38 133 46 l42 15 0
55 c-1 30 -4 54 -8 54 -3 0 -24 -5 -46 -12 -22 -6 -42 -12 -45 -13 -3 0 -27
-9 -55 -19 -64 -23 -80 -28 -81 -24 0 2 -8 -3 -17 -11 -10 -7 -17 -11 -17 -8
0 2 -16 -1 -37 -8 -35 -12 -39 -11 -114 33 -74 43 -86 61 -47 68 7 1 105 34
218 74 113 39 210 72 215 74 27 5 35 21 35 65 0 26 -3 50 -6 54 -4 3 -22 0
-40 -8 -19 -8 -34 -12 -34 -9 0 2 -13 -2 -30 -11 -16 -8 -33 -16 -37 -16 -5
-1 -12 -3 -18 -5 -5 -2 -39 -13 -75 -24 -36 -11 -72 -24 -80 -27 -8 -3 -19 -7
-25 -9 -5 -1 -44 -15 -85 -29 -41 -15 -79 -28 -85 -30 -11 -2 -39 -12 -73 -26
-64 -25 -98 -3 -101 67 -1 50 2 56 39 69 3 1 12 4 20 7 8 3 38 13 65 23 28 9
57 19 65 22 8 4 17 7 20 8 21 5 237 79 245 84 6 3 15 6 21 7 7 1 52 16 100 34
49 17 94 33 100 35 15 5 17 115 3 115 -6 0 -82 -25 -170 -56 -87 -31 -164 -57
-171 -58 -7 -1 -17 -4 -23 -7 -5 -4 -41 -16 -80 -28 -38 -13 -79 -26 -90 -31
-36 -17 -110 -40 -126 -40 -14 0 -17 12 -17 73 0 74 0 74 32 85 17 6 98 34
180 62 81 29 153 53 160 55 6 1 18 5 26 8 23 9 164 58 175 61 28 6 91 30 101
37 6 5 12 32 13 59 1 63 0 63 -139 12 -8 -3 -17 -6 -20 -7 -18 -4 -88 -28
-105 -35 -11 -4 -47 -17 -80 -28 -78 -27 -236 -82 -255 -89 -8 -4 -20 -5 -27
-4 -6 1 -14 -3 -18 -9 -3 -5 -14 -10 -24 -10 -16 0 -18 9 -17 73 1 62 3 72 19
71 9 -1 17 2 17 6 0 4 12 11 28 15 25 6 200 66 247 85 11 5 63 23 115 41 52
18 160 57 240 85 158 57 160 58 161 47z m4044 -573 c3 -11 9 -32 11 -47 11
-61 47 -120 106 -175 l61 -58 -99 0 c-137 -1 -366 -1 -381 0 -59 2 110 204
224 267 68 39 70 39 78 13z m-1898 -1930 c0 -1620 -1 -1771 -16 -1779 -9 -5
-33 -12 -53 -15 -21 -3 -55 -9 -75 -12 -20 -3 -46 -10 -59 -14 -12 -5 -24 -6
-27 -3 -3 3 -12 1 -19 -3 -7 -5 -17 -9 -23 -10 -5 -1 -27 -5 -47 -9 l-38 -7
-1 493 c0 272 -3 508 -5 524 -12 74 -77 144 -161 173 -85 29 -218 -8 -269 -75
-53 -69 -53 -74 -53 -608 0 -272 -3 -500 -6 -505 -4 -6 -11 -8 -16 -5 -5 4
-17 8 -26 10 -153 36 -179 41 -248 50 -27 4 -52 9 -54 11 -5 5 -8 3536 -3
3547 2 4 272 7 601 7 l598 0 0 -1770z m1759 1200 c1 -140 -1 -260 -3 -265 -3
-8 -124 -13 -153 -6 -4 1 -6 526 -1 526 0 0 36 0 79 0 l77 0 1 -255z m345 251
c11 -2 7 -590 -5 -594 -9 -3 -129 -1 -146 2 -4 1 -5 532 -1 582 1 13 14 15 74
13 39 -1 75 -2 78 -3z m364 -259 c0 -171 -3 -263 -10 -265 -5 -2 -41 -3 -80
-3 l-70 1 -2 250 c0 138 1 257 3 266 3 12 19 15 82 14 l77 -1 0 -262z m835
-565 c41 -61 77 -114 80 -117 3 -3 41 -59 86 -125 45 -66 116 -172 159 -235
42 -63 79 -120 82 -126 5 -13 -1973 -18 -1982 -5 -3 6 281 151 305 156 3 0 61
28 130 62 118 58 238 116 495 238 61 29 169 81 240 115 72 34 171 82 220 106
50 24 95 43 100 44 6 0 44 -51 85 -113z m-3040 -288 c7 -11 19 -28 28 -38 9
-10 49 -59 87 -110 79 -105 188 -246 213 -276 10 -11 28 -36 41 -55 14 -19 31
-42 38 -50 8 -8 30 -37 51 -65 20 -27 49 -63 64 -80 16 -16 28 -35 28 -42 0
-6 3 -13 8 -15 14 -6 84 -98 76 -99 -39 -6 -642 -4 -654 2 -13 6 -15 62 -14
421 1 227 2 416 3 421 2 14 21 7 31 -14z m3220 -541 c3 -213 0 -1060 -4 -1066
-4 -7 -44 -8 -141 -3 -20 1 -20 8 -20 513 l0 513 70 37 c39 20 76 37 83 38 7
0 12 -13 12 -32z m-450 -622 c0 -346 -3 -445 -12 -448 -7 -2 -42 -3 -78 -3
l-65 2 -3 409 -2 410 72 36 c40 19 76 36 81 37 4 0 7 -199 7 -443z m-450 214
c1 -5 1 -129 1 -275 0 -146 0 -293 -1 -328 l0 -62 -74 0 c-41 0 -78 3 -81 7
-5 5 -10 459 -6 575 1 17 17 30 74 57 79 38 87 41 87 26z m-5503 -37 c4 -9 14
-24 22 -33 9 -9 26 -30 39 -46 12 -17 33 -44 46 -60 13 -16 72 -90 130 -164
59 -74 113 -143 121 -152 11 -14 14 -77 17 -322 1 -168 0 -307 -2 -310 -3 -2
-39 -7 -80 -11 -41 -4 -78 -9 -82 -11 -9 -6 -9 -9 -12 241 -1 105 2 198 7 208
5 10 4 17 -3 17 -5 0 -10 7 -10 16 0 8 -4 13 -8 10 -4 -2 -35 -8 -67 -11 -33
-4 -61 -8 -63 -10 -2 -1 -3 -111 -3 -243 l-1 -241 -26 -5 c-43 -8 -151 -22
-237 -31 -87 -9 -140 -17 -147 -22 -10 -6 -10 -27 -12 362 -2 347 0 368 36
407 7 7 33 42 58 78 24 36 48 67 52 68 4 2 8 9 8 16 0 7 9 21 20 31 11 10 20
24 20 31 0 7 4 14 9 16 10 3 120 154 128 175 7 19 32 16 40 -4z m3880 -570 l2
-523 -32 -1 c-58 -1 -152 -1 -172 0 -20 1 -20 8 -21 312 0 258 -3 312 -15 320
-8 5 -10 9 -5 9 15 0 -47 49 -74 59 -69 24 -159 -16 -180 -80 -8 -24 -13 -133
-14 -329 l-1 -294 -80 -3 c-115 -6 -119 -6 -130 -4 -7 1 -9 180 -9 519 1 284
2 522 3 527 1 7 127 10 364 10 l362 0 2 -522z m1175 174 c0 -119 -3 -220 -5
-224 -6 -9 -144 -9 -153 -1 -11 11 -5 383 6 386 6 2 39 18 73 36 34 17 66 29
70 25 5 -3 8 -104 9 -222z m-3970 182 c32 -14 73 -81 93 -153 19 -65 28 -295
15 -367 -7 -36 -92 -180 -112 -187 -4 -2 -8 -9 -8 -16 0 -7 -5 -17 -12 -24 -9
-9 -22 3 -56 51 -25 34 -49 64 -54 65 -4 2 -6 8 -2 13 3 5 0 9 -5 9 -6 0 -11
7 -11 15 0 8 -3 15 -8 15 -14 0 -35 62 -37 111 -2 26 -6 53 -10 58 -3 6 -2 11
3 11 6 0 7 14 2 34 -4 19 -5 37 -3 40 3 3 7 39 9 79 5 109 53 208 119 245 25
14 48 15 77 1z"/>
<path d="M4190 7589 l-65 -28 -1 -103 c0 -132 3 -140 53 -122 21 7 45 13 54
14 35 1 44 29 44 146 0 67 -4 115 -10 117 -5 2 -39 -9 -75 -24z"/>
<path d="M3845 7482 l-60 -24 1 -116 0 -117 25 3 c13 1 47 9 74 18 l51 15 -1
121 c0 140 2 137 -90 100z"/>
<path d="M4250 7053 c-8 -3 -29 -11 -47 -19 -17 -8 -38 -14 -46 -14 -27 0 -33
-25 -33 -135 l1 -110 25 -1 c14 0 31 4 39 10 8 6 16 10 18 8 6 -5 58 11 64 20
6 9 5 236 -2 242 -2 2 -11 1 -19 -1z"/>
<path d="M3860 6577 c-30 -12 -60 -25 -66 -29 -10 -7 -13 -222 -3 -232 6 -7
121 23 134 34 9 7 13 199 6 243 -1 10 -9 8 -71 -16z"/>
<path d="M4214 6160 c-95 -33 -90 -25 -89 -149 1 -61 4 -113 7 -117 15 -14 47
10 93 72 49 64 50 67 50 136 0 38 -2 71 -5 73 -3 1 -28 -6 -56 -15z"/>
<path d="M3855 5707 c-33 -12 -62 -23 -64 -24 -7 -5 -7 -234 -1 -238 6 -4 120
27 135 37 14 9 14 240 0 244 -5 1 -37 -7 -70 -19z"/>
<path d="M6840 7925 c-7 -8 -19 -15 -26 -15 -8 0 -14 -4 -14 -10 0 -5 -6 -10
-13 -10 -7 0 -42 -23 -78 -52 -93 -74 -169 -190 -183 -281 -1 -7 -4 -16 -8
-22 -3 -5 -5 -230 -4 -500 l1 -490 345 0 345 0 0 470 c1 448 -3 526 -30 603
-2 7 -4 15 -4 18 0 4 -3 10 -8 13 -4 3 -17 23 -27 44 -37 72 -123 150 -247
225 -32 19 -38 20 -49 7z m-82 -356 c29 -29 52 -55 52 -59 0 -3 10 -20 23 -37
l23 -32 48 65 c52 70 141 148 158 138 18 -11 49 -94 43 -113 -3 -10 -15 -23
-28 -30 -48 -26 -116 -142 -144 -246 -3 -11 -6 -154 -8 -318 -1 -208 -5 -301
-13 -306 -9 -5 -76 -7 -114 -2 -4 1 -7 131 -7 290 0 235 -3 301 -16 353 -22
84 -58 147 -116 207 -27 27 -49 57 -49 67 0 10 9 37 21 61 20 42 21 42 48 29
15 -8 51 -38 79 -67z"/>
<path d="M4409 5146 c-3 -3 -46 -10 -104 -18 -18 -2 -12 -228 6 -239 8 -4 15
-5 17 -1 1 5 15 7 30 7 15 -1 41 2 58 6 l32 9 -1 112 c0 70 -4 116 -11 120
-12 9 -21 10 -27 4z"/>
<path d="M8642 9137 c13 -10 32 -26 43 -35 11 -9 31 -24 45 -33 14 -10 34 -25
45 -35 11 -11 46 -38 78 -62 31 -23 57 -46 57 -50 0 -4 -23 -23 -52 -42 -29
-19 -59 -42 -68 -50 -9 -8 -38 -31 -66 -50 -63 -44 -84 -63 -84 -72 0 -5 203
-8 450 -8 353 0 450 3 451 13 4 39 3 437 -1 438 -3 1 -211 2 -463 3 -447 1
-458 1 -435 -17z"/>
<path d="M2974 6422 c-37 -6 -81 -66 -106 -147 -26 -86 -32 -289 -8 -345 12
-31 46 -87 60 -100 3 -3 23 -27 44 -53 36 -44 40 -46 50 -28 6 11 32 53 58 95
26 41 51 92 57 113 5 21 8 99 5 173 -5 157 -19 209 -72 257 -38 34 -55 41 -88
35z"/>
<path d="M2454 6005 c-30 -13 -70 -54 -90 -92 -27 -49 -37 -104 -40 -208 -2
-60 -5 -119 -7 -129 -5 -24 11 -100 26 -129 26 -49 133 -196 142 -196 16 0
147 208 150 238 1 15 4 32 7 37 6 10 2 160 -6 219 -11 80 -18 108 -41 159 -41
90 -88 124 -141 101z"/>
<path d="M3340 5699 c-227 -126 -405 -286 -775 -693 -44 -49 -91 -100 -104
-115 -39 -43 -204 -223 -236 -256 -16 -18 -75 -80 -130 -139 -120 -128 -161
-172 -375 -395 -91 -95 -169 -179 -173 -187 -8 -13 4 -15 84 -12 107 4 71 -24
314 233 83 87 176 186 208 219 31 33 88 94 126 136 38 41 100 108 138 148 37
40 75 80 83 89 23 26 124 138 219 243 109 121 363 374 419 420 24 19 54 44 65
54 12 10 66 48 120 83 l98 64 -2 52 c-1 59 -7 87 -17 87 -4 -1 -32 -15 -62
-31z"/>
<path d="M1846 5420 c-75 -69 -95 -153 -96 -385 0 -106 4 -143 23 -188 17 -40
96 -157 106 -157 3 0 17 -18 31 -40 13 -22 27 -40 31 -40 4 0 22 24 40 53 19
28 38 57 44 63 6 6 28 45 49 86 42 83 46 121 32 273 -18 198 -44 276 -112 343
-48 47 -91 45 -148 -8z"/>
<path d="M3364 5328 c-82 -43 -209 -134 -318 -228 -37 -32 -242 -237 -281
-281 -16 -19 -61 -70 -100 -114 -38 -43 -77 -86 -85 -95 -8 -9 -37 -41 -64
-71 -63 -71 -204 -226 -237 -261 -15 -16 -60 -65 -100 -109 -41 -45 -104 -114
-141 -152 -71 -76 -73 -91 -8 -80 35 6 65 9 109 12 25 1 52 27 216 206 50 54
106 115 125 136 19 20 46 50 60 66 14 16 65 74 114 128 49 54 98 109 110 123
91 108 291 313 381 391 33 28 67 58 75 65 20 18 150 108 175 122 17 10 20 22
21 83 0 39 -2 74 -6 76 -4 2 -24 -5 -46 -17z"/>
<path d="M5148 4155 c-2 -2 -55 -6 -118 -10 -63 -3 -135 -8 -160 -10 -116 -10
-178 -16 -210 -20 -19 -2 -64 -7 -100 -11 -36 -3 -73 -8 -82 -9 -9 -2 -48 -7
-85 -10 -37 -4 -70 -9 -73 -10 -3 -2 -30 -6 -60 -10 -57 -6 -73 -9 -150 -20
-25 -4 -58 -9 -75 -11 -16 -2 -41 -6 -55 -9 -14 -2 -45 -7 -70 -10 -25 -3 -56
-7 -70 -10 -14 -3 -38 -7 -55 -9 -16 -3 -48 -7 -70 -11 -22 -3 -51 -8 -65 -10
-14 -3 -43 -7 -65 -11 -22 -4 -55 -8 -72 -8 -18 -1 -33 -3 -33 -6 0 -3 -12 -7
-27 -8 -16 -1 -53 -6 -83 -12 -30 -5 -71 -12 -90 -15 -19 -3 -46 -7 -60 -10
-14 -2 -43 -7 -65 -10 -23 -3 -52 -7 -65 -10 -13 -3 -42 -7 -64 -11 -22 -3
-43 -7 -46 -9 -3 -2 -34 -6 -70 -10 -36 -4 -67 -8 -70 -10 -3 -2 -27 -6 -55
-9 -27 -4 -61 -8 -75 -11 -14 -2 -41 -7 -60 -9 -19 -3 -46 -8 -60 -11 -14 -3
-45 -8 -70 -11 -25 -3 -61 -8 -80 -10 -19 -3 -45 -6 -57 -7 -13 0 -23 -3 -23
-6 0 -4 -17 -6 -37 -5 -21 0 -42 -2 -47 -4 -6 -3 -26 -7 -45 -8 -20 -2 -50 -5
-66 -8 -17 -2 -53 -7 -80 -10 -54 -6 -120 -15 -175 -22 -19 -3 -60 -7 -90 -10
-30 -2 -75 -7 -100 -9 -109 -12 -153 -16 -217 -20 -198 -14 -320 -18 -539 -18
l-240 1 -24 -67 c-12 -36 -25 -72 -28 -79 -5 -13 184 -11 468 4 63 4 139 7
167 8 29 0 53 3 53 6 0 3 24 5 53 6 48 0 163 9 262 19 22 3 69 7 105 10 67 5
124 10 220 21 30 3 75 7 100 9 25 2 68 7 95 10 28 3 75 8 105 10 30 3 73 7 95
10 22 2 63 7 90 10 28 3 68 7 90 10 37 5 100 12 170 20 74 8 153 17 185 21 19
2 55 6 80 8 25 2 68 7 95 10 28 4 68 9 90 11 85 11 122 15 175 20 30 4 66 8
80 10 14 3 50 7 80 11 30 3 64 8 75 11 11 2 40 6 65 9 25 2 56 7 70 9 14 2 43
7 65 10 22 3 51 8 65 10 14 3 43 7 65 10 22 4 65 10 95 15 30 5 73 12 95 15
22 3 83 12 135 20 52 7 114 16 138 19 23 3 61 9 85 12 23 3 53 7 67 9 46 6
124 15 195 21 39 4 84 8 100 9 141 15 504 23 523 11 6 -3 13 -2 17 4 4 6 11 8
16 4 5 -3 37 -7 70 -10 177 -12 340 -38 469 -74 41 -11 82 -23 90 -25 8 -2 15
-4 15 -5 0 -1 7 -3 15 -5 81 -17 310 -131 399 -198 157 -119 264 -292 287
-465 7 -59 -3 -67 -29 -23 -50 84 -182 223 -294 308 -56 43 -258 149 -298 158
-11 2 -45 11 -75 20 -112 31 -180 28 -112 -5 15 -8 38 -22 52 -31 14 -9 28
-17 32 -18 29 -6 213 -126 303 -199 98 -78 275 -261 268 -277 -6 -18 -21 -11
-118 53 -96 64 -219 124 -329 162 -44 15 -84 27 -89 28 -4 0 -31 5 -60 11 -83
17 -126 21 -233 21 -102 1 -134 -4 -134 -22 0 -5 4 -7 9 -3 5 3 12 1 16 -5 4
-6 11 -8 16 -5 5 4 14 3 21 -1 7 -4 23 -9 36 -10 14 -2 50 -10 81 -19 182 -54
318 -111 454 -193 43 -26 89 -53 103 -60 13 -7 24 -17 24 -23 0 -5 4 -9 10 -9
17 0 130 -84 126 -95 -1 -5 -47 -10 -102 -10 l-99 -1 -110 57 c-147 76 -238
102 -355 101 -51 0 -116 -3 -320 -17 -41 -3 -109 -7 -150 -10 -41 -2 -104 -6
-140 -9 -36 -3 -105 -8 -154 -11 -49 -3 -93 -8 -97 -11 -6 -3 -9 -98 -11 -353
0 -83 5 -90 66 -84 17 2 216 5 443 8 285 3 414 2 418 -6 4 -5 9 -25 12 -42 6
-38 29 -86 52 -108 25 -24 51 -32 116 -36 80 -4 1367 -5 1475 0 133 5 171 35
193 149 3 15 8 31 11 36 5 8 88 8 616 -3 184 -4 399 -8 477 -10 79 -1 145 -4
149 -7 3 -4 19 -2 35 2 16 5 29 6 29 2 0 -4 80 -8 178 -8 170 -2 530 -10 812
-19 285 -9 450 -15 585 -20 77 -3 208 -7 290 -10 83 -3 204 -8 270 -11 66 -2
189 -6 272 -9 84 -2 158 -7 164 -11 8 -5 9 -3 4 6 -6 9 -4 11 5 5 7 -4 63 -9
124 -11 61 -2 176 -6 256 -9 80 -3 208 -8 285 -10 77 -3 190 -7 250 -10 61 -2
184 -7 275 -10 91 -3 206 -8 255 -10 162 -8 439 -18 510 -19 l70 -1 -2 27 c-2
31 -17 67 -76 187 l-42 84 -50 4 c-64 5 -166 11 -280 18 -49 3 -119 7 -155 9
-36 3 -110 7 -165 10 -55 4 -125 8 -155 11 -30 3 -95 7 -145 10 -49 3 -112 7
-140 9 -27 3 -97 7 -155 11 -58 3 -136 8 -175 11 -38 3 -104 7 -145 9 -41 2
-111 6 -155 10 -44 3 -116 7 -160 10 -75 4 -154 9 -300 20 -33 2 -100 7 -150
10 -49 2 -121 7 -160 10 -38 3 -106 8 -150 11 -88 5 -177 11 -300 19 -44 3
-118 7 -165 10 -47 3 -116 7 -155 9 -38 3 -108 7 -155 11 -47 3 -119 7 -160
10 -41 3 -104 7 -140 10 -36 2 -103 7 -150 10 -47 2 -119 7 -160 10 -41 3
-111 7 -155 10 -44 2 -125 8 -180 11 -55 4 -119 7 -142 8 -24 0 -43 3 -43 6 0
3 -30 5 -68 6 -65 0 -250 10 -342 19 -25 2 -92 7 -150 10 -165 11 -198 13
-305 20 -199 14 -221 15 -310 16 -116 1 -229 -25 -319 -73 -10 -5 -48 -26 -84
-46 -61 -34 -70 -35 -169 -37 -57 -1 -106 2 -109 6 -3 6 17 25 71 67 84 65
395 242 425 242 4 0 25 8 46 17 22 9 44 17 49 19 6 1 31 9 57 17 26 9 57 19
70 21 13 3 34 8 48 11 14 3 32 8 40 10 8 2 17 4 20 5 3 1 8 2 12 1 14 -2 58
19 58 27 0 10 -3 11 -132 11 -113 0 -148 -2 -193 -12 -16 -4 -44 -9 -62 -12
-18 -3 -45 -10 -60 -16 -15 -6 -28 -10 -28 -9 0 6 -130 -43 -200 -77 -94 -44
-139 -70 -209 -120 -52 -37 -86 -46 -86 -23 0 13 203 214 265 263 33 26 67 53
75 59 34 30 232 151 313 193 68 35 48 41 -66 20 -102 -20 -273 -94 -370 -162
-133 -92 -259 -217 -325 -320 -15 -24 -30 -43 -34 -43 -12 0 -9 38 7 107 40
170 156 332 315 439 69 46 195 108 302 148 104 39 313 93 388 101 25 3 56 7
70 10 47 10 155 19 232 19 43 1 78 3 78 6 0 6 154 4 330 -4 157 -8 274 -17
385 -31 22 -3 62 -7 89 -11 26 -3 65 -8 85 -10 20 -3 54 -7 76 -9 22 -2 40 -4
40 -5 0 -2 35 -8 80 -14 22 -3 54 -8 70 -11 17 -2 48 -7 70 -10 22 -2 51 -7
65 -10 14 -3 43 -7 65 -10 22 -2 51 -7 65 -10 14 -3 43 -7 65 -10 22 -3 65 -9
95 -14 63 -11 131 -21 175 -26 17 -2 46 -6 65 -10 19 -3 55 -7 80 -10 25 -2
63 -7 85 -10 22 -3 60 -8 85 -10 25 -3 65 -8 90 -11 25 -2 64 -7 88 -9 23 -3
63 -7 90 -10 26 -3 72 -8 103 -11 30 -2 66 -7 79 -9 14 -3 54 -7 90 -11 36 -3
76 -7 90 -10 14 -2 50 -6 80 -9 30 -3 69 -7 85 -10 17 -2 62 -7 100 -11 39 -3
84 -8 100 -10 17 -2 59 -6 95 -9 36 -3 81 -7 100 -10 19 -2 67 -7 105 -11 39
-4 81 -8 95 -9 14 -2 61 -6 105 -9 44 -4 102 -9 129 -12 27 -3 74 -7 105 -9
31 -3 88 -7 126 -10 67 -6 155 -11 298 -19 37 -2 70 -6 73 -9 4 -3 16 -2 29 3
13 5 26 6 29 2 4 -3 68 -7 142 -8 74 -1 138 -4 141 -7 3 -4 14 -2 24 3 17 10
17 14 -8 84 l-26 74 -226 -1 c-196 -1 -434 7 -551 18 -19 2 -69 6 -110 9 -133
11 -174 15 -210 21 -19 2 -62 7 -95 10 -33 3 -76 8 -95 11 -19 3 -48 7 -65 9
-16 2 -52 7 -80 11 -27 3 -65 8 -82 10 -18 2 -50 6 -70 9 -21 3 -63 8 -93 11
-30 4 -57 9 -60 13 -3 3 -18 6 -35 7 -31 0 -52 3 -220 29 -55 8 -116 17 -135
20 -19 3 -42 7 -50 10 -8 2 -37 7 -65 11 -55 7 -75 10 -120 18 -16 2 -75 12
-130 21 -55 8 -116 18 -135 22 -46 7 -77 12 -120 17 -19 3 -35 5 -35 6 0 2
-26 7 -85 16 -25 4 -54 8 -65 10 -11 2 -33 5 -50 8 -16 2 -61 9 -100 16 -114
18 -118 19 -165 25 -25 3 -56 8 -70 10 -14 2 -42 7 -62 10 -21 3 -53 7 -70 10
-18 3 -49 7 -68 9 -19 3 -91 12 -160 20 -69 9 -145 19 -170 21 -25 3 -61 8
-80 10 -39 5 -152 15 -220 20 -25 2 -97 7 -160 11 -156 11 -556 11 -655 0 -44
-5 -95 -10 -112 -10 -18 -1 -33 -3 -33 -6 0 -3 -15 -7 -32 -8 -85 -6 -424
-102 -525 -148 -17 -8 -34 -14 -37 -14 -19 0 -244 -120 -326 -174 l-96 -63
-79 54 c-44 30 -87 57 -95 61 -8 3 -35 18 -60 32 -65 38 -264 124 -345 149
-38 12 -78 26 -87 32 -10 5 -26 9 -37 9 -10 0 -35 7 -55 15 -20 8 -39 15 -43
15 -8 0 -22 2 -133 23 -34 7 -62 12 -125 22 -75 13 -157 17 -387 20 -136 2
-248 2 -250 0z"/>
<path d="M3309 3516 c-4 -4 -49 -9 -192 -21 -34 -3 -78 -8 -97 -10 -19 -2 -66
-7 -105 -10 -38 -4 -88 -8 -110 -11 -22 -2 -67 -6 -100 -9 -33 -2 -80 -7 -105
-9 -25 -3 -76 -7 -115 -11 -75 -6 -143 -12 -245 -21 -36 -3 -87 -7 -115 -9
-56 -4 -174 -14 -250 -21 -27 -2 -88 -7 -135 -10 -47 -2 -110 -7 -140 -9 -52
-4 -166 -10 -380 -21 -52 -3 -159 -6 -238 -8 -78 -2 -146 -6 -149 -10 -3 -3
-11 -2 -17 4 -7 5 -27 5 -47 1 -19 -4 -43 -6 -54 -4 -23 4 -31 4 -108 3 l-57
-1 -30 -59 c-17 -33 -30 -66 -30 -74 0 -12 27 -14 173 -11 94 2 217 6 272 10
186 10 269 15 315 19 25 3 86 7 135 11 50 3 113 8 140 11 28 3 84 7 125 10 41
3 93 7 115 8 133 12 206 18 255 21 30 3 80 7 110 10 30 3 82 7 115 10 59 4
124 9 260 21 39 4 84 8 100 9 17 1 39 4 50 8 11 3 45 8 76 12 31 3 67 8 80 11
13 3 33 7 44 8 18 3 33 6 103 20 12 3 26 7 30 10 5 3 19 7 33 10 72 14 127 29
216 62 54 20 104 36 111 37 6 0 10 3 7 6 -7 6 -41 12 -46 7z"/>
<path d="M4937 3514 c-3 -3 -45 -7 -94 -9 -88 -4 -222 -13 -278 -19 -16 -2
-68 -7 -115 -11 -47 -4 -98 -9 -115 -11 -16 -2 -55 -6 -85 -9 -30 -3 -68 -7
-85 -9 -16 -2 -55 -6 -85 -10 -110 -12 -145 -29 -176 -80 -16 -27 -18 -55 -19
-208 0 -97 -4 -180 -8 -185 -5 -4 -20 -8 -35 -9 -15 -1 -72 -5 -127 -9 -55 -3
-131 -8 -170 -10 -66 -4 -113 -7 -310 -20 -44 -3 -114 -8 -155 -10 -41 -3
-109 -7 -150 -10 -41 -3 -109 -8 -150 -10 -112 -6 -236 -14 -315 -20 -180 -13
-226 -16 -305 -21 -198 -11 -239 -14 -310 -19 -41 -4 -111 -8 -155 -10 -44 -2
-80 -4 -80 -5 0 -1 -27 -3 -60 -4 -82 -5 -247 -15 -320 -21 -33 -3 -103 -8
-155 -11 -52 -2 -117 -7 -145 -9 -27 -2 -95 -6 -150 -10 -55 -3 -131 -8 -170
-11 -38 -2 -108 -7 -155 -9 -47 -2 -85 -5 -85 -5 0 -1 -36 -3 -80 -6 -44 -2
-100 -6 -125 -8 l-45 -3 -48 -94 c-48 -96 -81 -185 -72 -200 3 -4 40 -6 83 -4
42 3 151 7 242 10 91 2 212 7 270 10 58 3 173 8 255 11 83 3 200 7 260 9 61 2
175 7 255 10 80 2 222 8 315 11 94 3 209 7 257 8 47 0 84 4 81 8 -2 5 7 4 20
-1 14 -6 27 -8 30 -5 2 2 62 6 133 9 71 2 197 7 279 10 182 7 344 13 568 20
93 3 221 8 285 10 64 2 191 7 282 10 91 3 182 7 203 8 21 1 44 -1 50 -5 8 -5
12 -48 13 -135 1 -70 2 -134 3 -140 2 -26 31 -12 88 43 32 31 108 104 169 162
169 163 202 192 222 192 12 0 106 -85 228 -205 115 -112 214 -205 220 -205 20
0 22 22 24 186 6 719 8 800 23 864 21 88 40 131 75 168 20 21 25 33 17 36 -7
2 -15 2 -18 0z"/>
<path d="M10350 3511 c0 -16 228 -93 345 -117 18 -3 72 -16 85 -19 9 -3 75
-15 100 -19 14 -3 25 -5 25 -6 0 -1 16 -3 35 -5 19 -1 53 -6 75 -10 22 -3 60
-8 85 -10 25 -3 68 -7 95 -9 28 -3 86 -8 130 -11 44 -3 100 -8 125 -10 25 -3
74 -7 110 -10 36 -3 90 -8 120 -11 77 -7 162 -14 250 -19 118 -8 191 -14 245
-20 28 -4 86 -8 130 -10 44 -2 109 -7 145 -10 209 -20 732 -39 752 -28 4 2 -8
36 -28 74 l-35 71 -65 -4 c-36 -2 -66 1 -68 7 -3 6 -5 4 -5 -2 -1 -9 -8 -10
-25 -3 -13 5 -26 7 -28 5 -10 -10 -384 1 -693 20 -189 12 -218 14 -290 19 -38
3 -106 8 -150 11 -44 3 -109 8 -144 11 -69 6 -142 12 -236 19 -33 2 -82 7
-110 10 -27 3 -77 8 -110 10 -33 2 -87 7 -120 10 -33 4 -76 8 -95 9 -89 8
-188 17 -220 22 -19 2 -64 6 -100 9 -36 3 -87 7 -114 10 -27 2 -79 7 -115 10
-36 3 -74 8 -83 11 -10 3 -18 1 -18 -5z"/>
<path d="M2347 3094 c-3 -3 -166 -14 -277 -19 -41 -2 -115 -6 -165 -9 -49 -3
-137 -8 -195 -11 -58 -4 -132 -8 -165 -10 -74 -5 -270 -15 -390 -20 -110 -5
-589 -17 -630 -16 -147 4 -175 -2 -175 -38 0 -9 -4 -21 -8 -26 -5 -6 -17 -29
-26 -53 l-16 -44 87 7 c102 7 177 12 288 21 44 3 114 7 155 9 41 2 75 5 75 6
0 1 20 2 45 4 25 1 92 6 150 9 58 4 132 9 165 11 33 2 98 7 145 10 47 3 126 7
175 10 50 3 110 7 135 9 132 11 206 19 211 22 3 1 30 6 60 9 30 4 83 13 119
22 36 8 72 16 80 18 43 9 106 28 115 35 6 5 22 10 35 12 46 6 70 34 30 34 -12
0 -22 -1 -23 -2z"/>
<path d="M11290 3088 c0 -7 9 -10 26 -7 4 0 10 -3 13 -8 6 -10 114 -45 196
-64 28 -6 57 -14 65 -17 8 -2 29 -6 45 -7 17 -2 44 -6 60 -9 17 -4 50 -9 75
-11 25 -3 61 -7 80 -10 53 -7 163 -15 275 -20 55 -3 100 -5 100 -6 0 -2 56 -6
180 -13 156 -9 207 -13 465 -31 25 -1 90 -6 145 -9 55 -4 120 -9 145 -11 160
-15 220 -16 220 -2 0 8 -14 46 -31 85 -29 64 -33 70 -54 62 -12 -4 -28 -5 -35
0 -7 5 -23 6 -34 4 -28 -7 -125 -5 -136 1 -5 3 -11 1 -15 -5 -4 -6 -10 -8 -15
-5 -5 3 -103 8 -217 10 -114 3 -248 7 -298 9 -49 3 -148 8 -220 12 -71 3 -155
7 -185 9 -62 4 -205 12 -360 21 -58 3 -134 7 -170 10 -36 2 -105 6 -155 9 -49
3 -107 6 -127 8 -21 1 -38 -1 -38 -5z"/>
</g>
</svg>
