<?xml version="1.0" encoding="UTF-8" standalone="no"?>
<!DOCTYPE svg PUBLIC "-//W3C//DTD SVG 1.1//EN" "http://www.w3.org/Graphics/SVG/1.1/DTD/svg11.dtd">
<svg width="100%" height="100%" viewBox="0 0 899 899" version="1.1" xmlns="http://www.w3.org/2000/svg" xmlns:xlink="http://www.w3.org/1999/xlink" xml:space="preserve" xmlns:serif="http://www.serif.com/" style="fill-rule:evenodd;clip-rule:evenodd;stroke-linejoin:round;stroke-miterlimit:2;">
    <g transform="matrix(1,0,0,1,-511.644,-91.4494)">
        <g transform="matrix(1.12466,0,0,1.13518,428.189,31.4844)">
            <ellipse cx="475.374" cy="261.843" rx="194.086" ry="181.747" style="fill:white;"/>
        </g>
        <path d="M726.05,989.9C725.3,988.37 723.72,988.85 722.53,988.53C709.09,984.92 701.45,975.9 700.01,961.96C698.25,944.85 699.38,927.69 699.05,910.56C699.02,908.9 698.98,907.23 699.05,905.57C699.25,900.9 697.04,898.94 692.39,899.07C690.45,899.12 687.18,900.5 687.37,896.4C687.56,892.33 690.77,894.1 692.69,894.08C703.34,893.93 714,893.96 724.65,894.04C726.49,894.05 729.24,892.73 729.2,896.62C729.16,900.07 726.74,899.05 724.98,899.13C717.67,899.43 716.08,900.82 716.09,907.98C716.11,926.44 714.88,944.95 716.93,963.36C718.23,975.06 724.76,981.21 736.28,982.65C746.76,983.95 757.22,978.25 761.21,969.02C763.08,964.69 763.99,960.13 764,955.43C764.03,939.95 764.38,924.47 763.05,909.02C762.37,901.09 761.81,900.25 753.82,899.21C751.91,898.96 751.22,898.26 751.25,896.41C751.27,894.38 752.34,893.96 754.12,893.97C762.94,894.02 771.76,894.03 780.58,893.96C782.4,893.95 783.35,894.37 783.45,896.38C783.56,898.64 782.52,899.07 780.48,899.22C773.02,899.77 772.27,900.7 772.12,908.42C771.82,924.56 772.41,940.71 771.17,956.84C769.83,974.3 762.04,984.05 745.1,989.04C744.7,989.16 744.4,989.62 744.05,989.93C738.05,989.9 732.05,989.9 726.05,989.9Z" style="fill:rgb(2,173,238);fill-rule:nonzero;"/>
        <path d="M1370.94,989.9C1366.37,987.35 1361.04,986.34 1356.87,982.93C1355,981.4 1353.91,982.91 1352.92,984.35C1352.23,985.35 1351.38,986.21 1350.03,985.68C1348.59,985.11 1348.9,983.75 1348.99,982.66C1349.64,975.2 1350.36,967.75 1351.06,960.3C1351.18,959.02 1351.6,958.06 1353.15,958.08C1354.95,958.1 1355.81,958.85 1355.97,960.75C1356.39,965.64 1358.06,970.14 1360.7,974.27C1365.51,981.78 1372.53,984.75 1381.19,983.84C1388.08,983.12 1393.46,978.55 1395.04,972.58C1397.01,965.11 1394.62,957.67 1388.81,953.37C1384.89,950.47 1380.33,948.81 1375.84,947.05C1371.03,945.16 1366.36,943.02 1362.04,940.16C1351.77,933.36 1347.56,922.41 1350.73,910.71C1353.48,900.55 1363.4,892.82 1374.78,892.04C1380.99,891.61 1387.1,892.25 1392.97,894.36C1395.18,895.16 1397,895.47 1398.86,893.56C1401.31,891.05 1402.19,892.72 1402.43,895.21C1403.06,901.67 1403.59,908.14 1404.25,914.59C1404.41,916.14 1404.1,917.17 1402.53,917.68C1400.39,918.38 1399.98,916.8 1399.45,915.4C1397.89,911.33 1395.74,907.63 1392.95,904.25C1387.93,898.17 1381.36,896.59 1374.06,898.06C1368.37,899.21 1364.6,903.03 1363.56,908.82C1362.47,914.88 1363.57,920.49 1368.92,924.42C1373.26,927.6 1378.26,929.44 1383.35,931.07C1389.38,933.01 1395.2,935.33 1400.24,939.4C1404.7,942.99 1406.43,948.16 1408.91,952.93L1408.91,967.93C1404.87,979.05 1398,987.22 1385.91,989.92C1380.93,989.9 1375.94,989.9 1370.94,989.9Z" style="fill:rgb(2,173,238);fill-rule:nonzero;"/>
        <path d="M1386.93,989.9C1399.02,987.19 1405.89,979.03 1409.93,967.91C1409.93,974.41 1409.81,980.91 1410,987.4C1410.06,989.56 1409.59,990.02 1407.43,989.97C1400.6,989.79 1393.77,989.9 1386.93,989.9Z" style="fill:rgb(248,252,253);fill-rule:nonzero;"/>
        <path d="M960.42,570.95C827.63,570.89 719.46,463.24 720.25,330.58C721.04,197.12 827.69,91.17 960.61,91.45C1093.9,91.73 1201.08,199.39 1199.68,333.74C1198.29,466.42 1091.07,570.31 960.42,570.95ZM950.07,400.98C951,376.79 949.86,354.31 950.35,331.83C950.44,327.53 949.7,326.13 945.09,326.17C917.28,326.4 889.47,326.27 861.66,326.3C860.01,326.3 858.29,326.35 856.73,326.81C840.33,331.64 824.76,338.33 810.87,348.41C797.87,357.85 788.75,370.08 786.15,386.3C779.81,425.94 805.91,462.91 845.63,470.95C859.94,473.85 874.39,474.03 888.89,473.47C908.34,472.72 927.76,471.02 947.25,471.51C950.59,471.59 950.08,469.7 950.08,467.67C950.06,444.89 950.07,422.08 950.07,400.98ZM975.38,398.87L975.84,398.87C975.84,421.68 975.88,444.49 975.8,467.3C975.79,470.31 976.19,471.5 979.88,471.48C991.02,471.41 1002.16,472.03 1013.3,472.4C1034.07,473.08 1054.89,475.56 1075.58,471.8C1105.82,466.3 1127.53,450.14 1137.19,420.18C1146.12,392.48 1139.24,368.04 1118.12,350.76C1108.24,342.68 1096.85,337.15 1085.12,332.28C1075.36,328.23 1065.46,325.87 1054.63,326.12C1030.16,326.69 1005.68,326.41 981.2,326.2C976.72,326.16 975.22,327.21 975.27,331.95C975.52,354.25 975.38,376.56 975.38,398.87ZM950.24,249.34L950.18,249.34C950.18,230.02 950.14,210.69 950.22,191.37C950.23,188.59 949.82,187.04 946.48,187.13C925.64,187.68 904.92,184.73 884.08,185.06C865.74,185.35 847.86,187.48 831.66,197.11C807.29,211.61 796.33,240.44 806.9,265.11C815.11,284.25 829.06,298.58 847.94,307.76C851.97,309.72 856.18,311.29 860.84,311.28C889.16,311.23 917.49,311.21 945.81,311.33C949.29,311.35 950.35,310.36 950.31,306.81C950.15,287.66 950.24,268.5 950.24,249.34ZM975.85,249.06L975.39,249.06C975.39,268.03 975.5,287.01 975.3,305.98C975.26,310.07 976.32,311.38 980.56,311.35C1008.19,311.17 1035.83,311.23 1063.47,311.31C1067.38,311.32 1071.09,310.67 1074.66,309.17C1095.3,300.47 1110.18,285.49 1118.92,265.25C1129.61,240.51 1119.05,212.28 1094.91,197.49C1078.69,187.55 1060.65,185.36 1042.14,185.06C1021.65,184.73 1001.27,187.61 980.79,187.11C976.81,187.01 975.72,188.19 975.77,192.14C975.96,211.11 975.85,230.09 975.85,249.06Z" style="fill:rgb(2,173,238);fill-rule:nonzero;"/>
        <path d="M622.86,739.63C627.6,741.44 632.29,743.08 636.88,745C676.11,761.42 676.32,802.85 659.87,827.16C651.66,839.3 638.88,842.84 625.48,844.92C607.28,847.74 588.93,847.31 570.63,846.58C553.46,845.9 536.33,846.44 519.19,847.02C514.93,847.16 513.74,845.77 513.87,841.67C513.99,837.93 513.98,835.1 519.04,835.75C522.15,836.15 525.36,835.88 528.52,835.72C533.54,835.46 536.4,832.82 537.16,827.76C538.81,816.83 538.06,805.82 538.37,794.85C539.47,755.38 538.86,715.92 538.07,676.46C538.06,675.96 538.05,675.46 538.03,674.96C537.53,660.73 534.88,658.15 520.76,658.12L518.76,658.12C512.46,658.11 510.49,655.32 512.27,649.14C513,646.6 514.89,646.99 516.67,647.04C525.49,647.29 534.32,647.84 543.14,647.79C560.46,647.7 577.77,647.22 595.09,647.03C605.1,646.92 615.06,647.66 624.86,649.78C647.59,654.7 659.45,670.78 658.64,694.11C657.96,713.9 647.84,726.66 630.73,734.92C628.2,736.14 625.67,737.38 623.15,738.63C623.06,738.66 623.06,738.91 622.86,739.63ZM571.09,781.07C571.48,791.27 570.21,803.78 572.11,816.19C573.48,825.17 575.88,833.71 585.91,836.85C603.61,842.4 623.85,832.24 630.23,814.81C633.75,805.19 633.95,795.25 633.01,785.26C631.26,766.62 619.98,753.16 602.01,747.83C593.13,745.2 584.01,744.97 574.84,744.88C571.63,744.85 570.98,745.9 571.03,748.86C571.19,758.84 571.09,768.83 571.09,781.07ZM571.93,697.69L571.09,697.69C571.09,705.85 571,714.01 571.13,722.17C571.2,726.62 569.19,732.52 571.94,735.13C574.9,737.93 580.81,736.14 585.42,736.05C608.35,735.59 621.3,724.23 624.72,701.71C627.72,681.96 619.22,666.47 601.87,660.06C594.42,657.31 586.74,656.37 578.82,656.68C574.07,656.86 571.86,658.9 571.9,663.74C572,675.05 571.93,686.37 571.93,697.69Z" style="fill:rgb(2,173,238);fill-rule:nonzero;"/>
        <path d="M819.28,739.89C828.99,731.27 839.36,727.07 850.93,726.12C871.21,724.46 890.63,736.5 897.43,756.1C906.98,783.66 902.59,809.06 882.48,830.78C864.26,850.45 840.72,853.61 813.59,843.41C810.53,842.26 808.4,842.29 805.89,844.08C803.73,845.62 801.46,847.09 799.07,848.21C794.82,850.21 791.14,848.02 791.29,843.73C792.84,799.76 791.73,755.78 791.53,711.81C791.49,703.98 791.44,696.15 791.13,688.33C790.7,677.19 788.24,674.13 777.83,670.6C775.82,669.92 773.02,670.15 773.07,666.61C773.12,663.34 775.63,663.03 777.68,662.21C789.76,657.43 801.52,651.98 812.94,645.8C819.38,642.32 821.08,643.43 820.93,650.8C820.38,677.28 819.83,703.76 819.3,730.24C819.23,733.02 819.28,735.81 819.28,739.89ZM873.49,797.12C873.21,775.8 870.27,763.98 864.09,755.21C854.39,741.45 834.87,738.6 821.76,748.97C820.1,750.29 819.13,751.65 819.16,753.95C819.4,773.57 818.59,793.21 820.16,812.79C820.65,818.9 821.54,825.06 825.6,830.12C835.78,842.83 855.54,841.14 865.2,826.65C872.03,816.41 873.69,804.84 873.49,797.12Z" style="fill:rgb(2,173,238);fill-rule:nonzero;"/>
        <path d="M1276.7,831.49C1270.8,838.02 1264.16,842.55 1256.52,845.65C1249.25,848.61 1241.68,849.51 1234,848.79C1226.15,848.05 1221.57,842.91 1219.11,835.81C1214.07,821.28 1219.39,805.34 1232.38,796.1C1240.01,790.68 1248.81,787.39 1257.02,783.01C1261.86,780.43 1266.71,777.87 1271.53,775.26C1273,774.46 1274.4,773.58 1274.37,771.54C1274.25,764.23 1274.77,756.91 1273.14,749.66C1271.86,743.97 1268.62,740.69 1262.87,739.56C1258.5,738.7 1254.26,738.95 1250.03,740.08C1241.01,742.49 1239.35,745.03 1240.59,754.24C1242.24,766.46 1235.94,774.36 1224.89,773.93C1219.34,773.71 1216,770.38 1215.85,764.76C1215.65,757.17 1218.48,750.57 1223.8,745.46C1240.52,729.42 1260.48,723.08 1283.36,727.24C1293.55,729.1 1300.33,737.1 1300.99,747.49C1302.3,768.1 1301.77,788.76 1301.95,809.4C1301.99,814.22 1301.83,819.05 1302.77,823.83C1303.39,827 1303.84,830.35 1307.5,831.33C1311.02,832.27 1314.18,830.83 1316.41,828.16C1318.1,826.14 1319.29,825.43 1321.69,827.15C1324,828.81 1324.56,830.53 1323.55,833.08C1318.41,846.06 1301.42,852.78 1288.82,846.75C1282.59,843.77 1279.26,838.29 1276.7,831.49ZM1274.36,803.85C1274.36,798.36 1274.34,792.88 1274.37,787.39C1274.38,785.15 1273.79,784.25 1271.48,785.61C1265.76,788.97 1259.72,791.83 1254.58,796.11C1246.16,803.12 1242.81,814.43 1246.13,824.43C1247.92,829.82 1252.15,833.48 1256.78,833.63C1265.25,833.91 1274.34,825.22 1274.38,816.81C1274.38,812.49 1274.37,808.17 1274.36,803.85Z" style="fill:rgb(2,173,238);fill-rule:nonzero;"/>
        <path d="M966.02,737.66L966.02,819.1C966.02,820.27 966.05,821.43 966.07,822.6C966.3,835.94 967.04,836.88 980.27,836.61C985.01,836.52 986.77,837.74 986.49,842.68C986.28,846.38 984.86,847.08 981.59,846.92C961.95,845.98 942.3,845.93 922.66,846.95C918.47,847.17 917.68,845.53 917.57,841.81C917.45,837.88 918.71,836.66 922.64,836.63C937.8,836.51 938.05,836.16 938.02,820.67C937.96,784.36 937.92,748.05 937.78,711.74C937.75,704.75 937.26,697.76 937.05,690.77C936.7,679.28 933.29,674.68 922.34,671.07C921.55,670.81 920.77,670.49 919.96,670.33C917.74,669.88 916.43,668.82 916.42,666.31C916.42,663.82 917.26,662.28 919.75,661.47C933.35,657.03 946.71,652.05 959.43,645.36C965.28,642.28 967.1,643.8 966.87,650.72C965.91,679.71 966.05,708.69 966.02,737.66Z" style="fill:rgb(2,173,238);fill-rule:nonzero;"/>
        <path d="M1383.94,737.93L1383.94,818.87C1383.94,820.2 1383.97,821.53 1383.99,822.87C1384.23,835.93 1384.99,836.7 1397.95,836.72C1401.27,836.72 1404.58,835.96 1404.43,841.45C1404.31,845.79 1403.22,847.2 1398.73,846.95C1379.43,845.89 1360.11,845.97 1340.8,846.94C1336.92,847.14 1335.52,846.09 1335.46,842.05C1335.4,837.92 1336.65,836.63 1340.81,836.64C1355.34,836.65 1355.94,835.9 1355.92,821.42C1355.86,784.78 1355.82,748.14 1355.68,711.5C1355.65,704.51 1355.16,697.52 1354.94,690.53C1354.6,679.57 1351.17,674.82 1340.93,671.31C1339.83,670.93 1338.74,670.48 1337.6,670.27C1335.21,669.82 1334.29,668.43 1334.33,666.06C1334.37,663.8 1335.14,662.34 1337.44,661.59C1351.19,657.07 1364.7,652.01 1377.59,645.3C1383.18,642.39 1384.99,643.91 1384.78,650.52C1383.84,679.64 1383.97,708.79 1383.94,737.93Z" style="fill:rgb(2,173,238);fill-rule:nonzero;"/>
        <path d="M1123.05,774.98C1122.99,787.1 1124.86,798.79 1130.31,809.8C1140.21,829.8 1160.34,836.38 1180.2,825.92C1182.69,824.61 1185.05,823 1187.3,821.31C1189.26,819.84 1190.96,818.92 1192.76,821.41C1194.36,823.63 1196.9,825.46 1193.96,828.63C1185.71,837.54 1175.77,843.91 1164.1,846.81C1121.85,857.3 1096.19,828.93 1095.12,795.53C1094.38,772.43 1101.23,752.08 1120.13,737.37C1135.94,725.07 1153.76,723.03 1172.55,728.96C1181.44,731.77 1187.93,737.44 1190.34,746.9C1192,753.44 1189.75,759.48 1184.78,762.04C1179.49,764.76 1172.19,763.11 1168.02,758.22C1165.72,755.52 1164.44,752.26 1163.05,749.06C1158.18,737.88 1146.87,734.52 1136.81,741.47C1127.61,747.83 1123.95,757.24 1123.08,767.98C1122.89,770.31 1123.05,772.65 1123.05,774.98Z" style="fill:rgb(2,173,238);fill-rule:nonzero;"/>
        <path d="M1058.96,778.74C1058.96,793.72 1058.95,808.71 1058.97,823.69C1058.97,825.35 1058.98,827.03 1059.17,828.68C1059.99,836.06 1060.75,836.72 1068.14,836.73C1069.31,836.73 1070.49,836.86 1071.63,836.71C1075.78,836.15 1077.09,837.85 1077.01,842.01C1076.93,846.06 1075.46,847.12 1071.63,846.94C1053.33,846.1 1035.02,845.96 1016.72,846.94C1012.95,847.14 1011.74,845.86 1011.84,842.15C1011.93,838.77 1012.05,836.04 1016.53,836.72C1016.86,836.77 1017.2,836.73 1017.53,836.72C1031.39,836.7 1030.27,837.98 1030.63,824.12C1031.15,804.32 1030.99,784.5 1030.92,764.69C1030.89,756.44 1027.83,752.81 1019.51,749.74C1017.31,748.93 1014.56,748.91 1014.44,745.29C1014.33,741.68 1016.7,740.91 1019.23,739.93C1030.07,735.72 1040.87,731.41 1051.73,727.24C1058.37,724.69 1059.11,725.37 1059.07,732.28C1058.98,747.76 1059.04,763.24 1059.04,778.73C1059.02,778.74 1058.99,778.74 1058.96,778.74Z" style="fill:rgb(2,173,238);fill-rule:nonzero;"/>
        <path d="M742.02,778.47C742.02,793.45 742.01,808.44 742.03,823.42C742.03,825.08 742.04,826.76 742.2,828.41C742.97,836.03 743.76,836.72 751.42,836.73C752.42,836.73 753.43,836.82 754.42,836.71C758.18,836.31 760.24,837.12 760.09,841.73C759.95,845.97 758.53,847.13 754.46,846.94C736.33,846.09 718.18,845.93 700.05,846.95C696.05,847.17 694.82,845.89 694.87,841.93C694.91,838.23 695.63,836.6 699.82,836.63C714.46,836.75 713.3,838.77 713.74,822.9C714.26,803.93 714.04,784.95 714.02,765.97C714.01,756.54 711.26,752.9 702.36,749.69C700.09,748.87 697.51,748.65 697.51,745.07C697.51,741.72 699.69,740.95 702.05,740.03C712.89,735.81 723.71,731.54 734.56,727.36C741.49,724.7 742.19,725.31 742.15,732.52C742.06,747.84 742.12,763.15 742.12,778.47L742.02,778.47Z" style="fill:rgb(2,173,238);fill-rule:nonzero;"/>
        <path d="M1030.09,943.49C1035.7,945.77 1038.45,950.36 1041.47,954.73C1046.59,962.12 1051.87,969.39 1056.94,976.81C1059.47,980.51 1062.71,982.77 1067.25,982.82C1069.16,982.84 1070.45,983.12 1070.4,985.49C1070.34,988.01 1068.8,987.88 1067.02,987.85C1061.36,987.76 1055.66,987.33 1050.05,987.88C1045.33,988.34 1042.7,986.51 1040.31,982.8C1034.08,973.15 1029.31,962.63 1022.48,953.36C1020.18,950.23 1017.7,947.32 1013.76,946.25C1008.38,944.79 1006.92,945.88 1007,951.43C1007.11,959.75 1007.3,968.08 1007.48,976.4C1007.58,980.79 1009.35,983.28 1014.26,982.76C1015.94,982.58 1018.58,981.69 1018.65,985.09C1018.73,988.7 1016.12,987.81 1014.09,987.82C1004.1,987.84 994.11,987.82 984.12,987.85C982.25,987.86 980.39,988.21 980.34,985.34C980.29,982.47 982.17,982.78 984.03,982.68C990.19,982.35 990.83,981.73 990.85,975.56C990.93,952.74 990.98,929.93 991,907.11C991,900.58 990.21,899.74 983.7,899.18C982.07,899.04 980.73,899.02 980.8,896.82C980.86,895.18 980.93,893.8 983.14,893.97C999.42,895.21 1015.77,892.64 1032.02,894.88C1036.36,895.48 1040.33,897.23 1043.98,899.65C1050.81,904.19 1054.87,910.31 1054.48,918.81C1054.05,928.41 1050.03,935.81 1040.97,939.79C1037.66,941.23 1034.13,942.13 1030.09,943.49ZM1007.44,921.53L1007.15,921.53C1007.15,927.01 1007.22,932.5 1007.12,937.98C1007.07,940.35 1007.64,941.74 1010.33,941.85C1019.31,942.22 1027.27,940.04 1032.59,932.28C1037.78,924.71 1038.78,916.51 1034.08,908.33C1029.43,900.24 1021.51,898.82 1013,898.76C1009.18,898.73 1007.46,900.42 1007.44,904.08C1007.42,909.9 1007.44,915.71 1007.44,921.53Z" style="fill:rgb(2,173,238);fill-rule:nonzero;"/>
        <path d="M569.08,937.51C571.73,938.55 574.36,939.46 576.88,940.6C588.09,945.68 593.61,955.3 591.89,966.61C590.06,978.6 582.89,985.24 570.08,986.92C564.78,987.62 559.48,987.93 554.14,987.91C541.82,987.86 529.49,987.84 517.17,987.89C515.12,987.9 513.58,987.82 513.6,985.13C513.63,982.59 515.23,982.76 516.97,982.66C525.05,982.21 525.32,982.2 525.62,974.06C526.43,952.25 526.35,930.43 525.71,908.62C525.46,899.95 524.99,899.75 516.06,899.17C514.19,899.05 512.84,898.91 512.91,896.5C512.97,894.56 513.71,893.81 515.62,893.94C532.57,895.13 549.6,892.61 566.53,894.81C577.95,896.29 584.23,901.68 585.83,911.16C587.6,921.66 583.35,929.65 573.3,934.83C571.88,935.58 570.05,935.71 569.08,937.51ZM542.24,957.18C542.38,962.54 541.78,968.71 543.09,974.78C543.89,978.52 545.47,981.64 549.44,982.98C556.45,985.35 566.18,982.21 570.35,976.15C579.05,963.5 572.44,945.13 557.72,941.2C553.69,940.12 549.55,939.92 545.38,939.87C543.04,939.84 542.12,940.55 542.2,942.98C542.35,947.45 542.24,951.94 542.24,957.18ZM542.79,917.57L542.24,917.57C542.24,922.55 542.22,927.53 542.25,932.51C542.26,933.92 541.9,935.37 544.11,935.91C552.66,938.03 563.75,933.5 567.19,925.96C570.34,919.06 570.69,911.87 566,905.63C561.19,899.24 553.77,898.2 546.27,898.26C543.88,898.28 542.76,899.68 542.79,902.13C542.84,907.28 542.79,912.43 542.79,917.57Z" style="fill:rgb(2,173,238);fill-rule:nonzero;"/>
        <path d="M1160.17,912.3C1159.22,933.66 1159.38,954.46 1160.84,975.23C1161.19,980.22 1163.48,982.99 1168.73,982.69C1170.72,982.58 1171.84,983.14 1171.81,985.45C1171.77,987.99 1170.22,987.89 1168.46,987.88C1160.63,987.85 1152.8,987.83 1144.98,987.89C1143.08,987.9 1141.83,987.75 1141.83,985.3C1141.83,982.86 1143.12,982.54 1144.99,982.7C1149.62,983.1 1151.64,980.54 1152.32,976.36C1153.7,967.94 1153.46,959.42 1153.72,950.95C1154.1,938.63 1154,926.3 1153.96,913.97C1153.93,904.22 1150.65,900.45 1141.15,899.2C1139.17,898.94 1138.62,898.17 1138.61,896.38C1138.59,894.38 1139.56,893.87 1141.4,893.89C1149.23,893.97 1157.06,893.93 1164.89,893.95C1167.88,893.96 1169.1,896.42 1170.62,898.29C1186.76,918.24 1203.48,937.78 1218.99,957.01C1220.31,958.65 1220.68,960.25 1222.62,962.59C1222.62,948.51 1222.7,935.45 1222.58,922.4C1222.53,917.41 1222.2,912.41 1221.71,907.44C1221.12,901.5 1219,899.58 1213.15,899.15C1211.23,899.01 1208.99,899.67 1209.11,896.37C1209.24,892.91 1211.7,894.05 1213.45,894.03C1220.78,893.95 1228.11,893.98 1235.43,894C1236.97,894.01 1238.87,893.32 1239.07,896.06C1239.25,898.54 1238.24,899.29 1235.91,899.17C1231.18,898.91 1230.57,902.5 1230.27,905.85C1229.68,912.32 1229.36,918.81 1229.04,925.3C1228.09,944.27 1228.06,963.26 1228.08,982.26C1228.08,984.41 1229.42,987.58 1226.83,988.57C1223.93,989.68 1222.11,986.79 1220.42,984.79C1205.65,967.18 1190.89,949.56 1176.18,931.9C1170.77,925.41 1165.5,918.83 1160.17,912.3Z" style="fill:rgb(2,173,238);fill-rule:nonzero;"/>
        <path d="M832.66,987.85L798.2,987.85C796.61,987.85 794.73,988.41 794.6,985.75C794.46,982.94 796.29,983.02 798.23,983.05C799.73,983.08 801.23,982.99 802.72,982.98C805.6,982.98 807.02,981.52 807.01,978.67C806.88,954.2 807.48,929.72 806.55,905.26C806.38,900.8 804.22,898.96 799.95,899.15C799.12,899.19 798.28,899.09 797.45,899.15C795.45,899.29 794.93,898.27 794.91,896.44C794.89,894.48 795.64,893.88 797.56,893.88C819.71,893.92 841.85,893.92 864,893.85C866.18,893.84 866.77,894.94 867.26,896.75C868.81,902.53 870.52,908.26 872.2,914C872.58,915.28 873.23,916.48 871.57,917.44C869.88,918.41 868.87,917.68 867.73,916.44C864.48,912.87 861.17,909.35 857.82,905.88C853.43,901.35 848.01,899.17 841.72,899.08C836.89,899.01 832.06,899.05 827.24,898.81C824.68,898.68 823.74,899.44 823.75,902.12C823.79,912.61 823.71,923.1 823.47,933.58C823.41,936.32 824.39,937.11 826.9,936.9C828.89,936.73 830.89,936.84 832.89,936.77C842.53,936.39 844.22,935.14 846.81,925.83C847.32,923.99 847.63,922.82 849.91,923.03C852.46,923.25 852.16,924.91 852.16,926.59C852.15,934.74 851.64,942.91 852.82,951.03C853.1,952.99 852.58,954.16 850.5,954.64C848.47,955.11 847.61,954.01 847.38,952.41C846.07,943.29 839.67,941.92 832.05,941.88C823.5,941.83 823.51,941.68 823.68,950.04C823.83,957.7 823.87,965.36 824.08,973.01C824.28,980.18 826.42,982.28 833.6,983.16C839.61,983.89 845.59,983.45 851.54,982.84C856.49,982.34 860.76,980.11 864.04,976.25C867.06,972.7 870.03,969.11 873.01,965.53C874,964.33 874.92,963.17 876.72,964.29C878.18,965.2 878.06,966.3 877.58,967.71C875.68,973.38 873.79,979.06 872.08,984.79C871.2,987.72 869.16,987.93 866.65,987.92C855.33,987.86 844,987.89 832.68,987.89C832.66,987.88 832.66,987.86 832.66,987.85Z" style="fill:rgb(2,173,238);fill-rule:nonzero;"/>
        <path d="M916.22,893.98C925.21,894.01 934.19,893.57 943.15,894.94C959.89,897.5 969.72,910.01 967.01,925.73C965.42,934.97 959.52,940.63 951.11,944.07C942.84,947.45 934.16,947.38 925.52,946.91C921.79,946.71 920.62,947.57 920.78,951.42C921.11,959.24 920.89,967.07 920.94,974.9C920.99,982.04 921.56,982.6 928.56,982.69L929.56,982.69C931.35,982.73 933.26,982.31 933.28,985.26C933.3,988.19 931.53,987.88 929.64,987.86C921.48,987.77 913.32,987.69 905.16,987.66C902,987.65 898.83,987.7 895.67,987.9C893.57,988.03 892.63,987.37 892.62,985.16C892.61,983.09 893.63,982.59 895.41,982.69C904.03,983.18 903.72,981.02 903.78,973.55C903.94,950.73 903.84,927.92 904.05,905.1C904.09,900.73 902.42,898.95 898.23,899.14C897.07,899.19 895.9,899.1 894.73,899.15C892.86,899.24 891.48,898.97 891.52,896.54C891.57,894.21 892.78,893.91 894.73,893.94C901.9,894.03 909.06,893.98 916.22,893.98ZM920.87,920.24C920.87,926.24 920.98,932.24 920.82,938.23C920.75,940.81 921.44,942.09 924.14,942.62C935.57,944.87 946.51,937.58 948.6,926.15C951.64,909.56 940.56,896.47 925.04,898.22C922.19,898.54 920.58,899.31 920.78,902.76C921.1,908.57 920.87,914.41 920.87,920.24Z" style="fill:rgb(2,173,238);fill-rule:nonzero;"/>
        <path d="M1291.15,987.86C1285.16,987.86 1279.17,987.85 1273.17,987.87C1271.48,987.88 1269.87,988.15 1269.75,985.55C1269.63,982.82 1271.14,982.57 1273.19,982.69C1274.19,982.74 1275.19,982.63 1276.19,982.71C1280.94,983.07 1282.8,980.69 1282.79,976.15C1282.77,966.49 1282.9,956.84 1282.92,947.18C1282.95,932.7 1282.85,918.21 1283.02,903.73C1283.06,900.51 1282.2,899.14 1278.87,899.56C1277.06,899.79 1275.2,899.82 1273.38,899.66C1262.25,898.66 1254.56,903.37 1249.86,913.42C1249.04,915.17 1248.3,918.03 1245.29,916.69C1242.32,915.36 1244.11,912.97 1244.58,911.07C1246.17,904.62 1247.98,898.22 1249.55,891.76C1250.31,888.64 1251.27,886.99 1254.28,889.96C1256.53,892.17 1259.41,892.86 1262.49,893.05C1281.95,894.25 1301.41,894.49 1320.87,892.96C1324.77,892.65 1328.31,891.3 1331.53,889.12C1333.47,887.81 1334.56,888.26 1334.93,890.58C1336.19,898.46 1337.46,906.34 1338.74,914.21C1338.98,915.69 1338.72,916.65 1337.09,917.28C1335.34,917.95 1334.63,917.16 1333.97,915.86C1333.82,915.56 1333.62,915.29 1333.51,914.98C1328.1,899.97 1315.83,898.88 1302.56,899.56C1299.66,899.71 1299.96,901.39 1299.96,903.23L1299.96,936.19C1299.97,948.51 1299.88,960.83 1300.03,973.15C1300.13,981.64 1300.94,982.33 1309.42,982.7C1311.33,982.78 1313.09,982.6 1312.99,985.45C1312.89,988.41 1310.9,987.87 1309.13,987.88C1303.14,987.86 1297.14,987.85 1291.15,987.86Z" style="fill:rgb(2,173,238);fill-rule:nonzero;"/>
        <path d="M644.29,987.85L610.81,987.85C609.03,987.85 607.1,988.38 607.05,985.38C607,982.49 608.75,982.76 610.64,982.67C618.83,982.31 618.93,982.24 618.95,974.01C619.01,952.02 619.04,930.03 619.03,908.04C619.03,900.77 618.3,898.03 610.93,899.11C608.88,899.41 607.91,898.52 607.97,896.29C608.03,894.15 609.14,893.94 610.86,893.94C622.69,893.98 634.51,893.99 646.34,893.93C648.27,893.92 649.58,894.2 649.65,896.5C649.72,898.89 648.28,899.04 646.42,899.17C636.89,899.81 636.88,899.85 636.54,909.55C635.75,932.03 636.19,954.52 636.2,977.01C636.2,981.53 637.62,983.14 642.24,982.78C649.04,982.25 655.88,982.17 662.71,982.19C667.28,982.21 670.67,980.3 673.56,977.02C677.45,972.61 680.43,967.62 682.93,962.34C683.7,960.7 684.4,959.24 686.56,959.97C689.05,960.81 687.87,962.55 687.49,964.09C685.85,970.71 684.02,977.29 682.67,983.96C682,987.29 680.51,988.03 677.29,987.97C666.3,987.75 655.3,987.89 644.31,987.89C644.29,987.87 644.29,987.86 644.29,987.85Z" style="fill:rgb(2,173,238);fill-rule:nonzero;"/>
        <path d="M1093.74,940.74C1093.74,929.41 1093.82,918.08 1093.71,906.76C1093.65,900.29 1092.45,899.23 1086.09,899.15C1084.92,899.14 1083.76,899.1 1082.59,899.14C1080.57,899.21 1080.08,898.1 1080.13,896.3C1080.18,894.61 1080.86,893.95 1082.55,893.95C1095.04,893.98 1107.54,893.98 1120.03,893.95C1121.85,893.95 1122.26,894.94 1122.26,896.48C1122.25,897.96 1121.93,898.82 1120.15,899.17C1111.15,900.92 1111.12,900.98 1111.11,910.09C1111.1,931.58 1111.12,953.07 1111.15,974.56C1111.16,982.02 1111.66,982.47 1119.01,982.71C1120.86,982.77 1123.19,982.01 1123.12,985.37C1123.05,988.78 1120.66,987.83 1118.86,987.83C1107.53,987.88 1096.21,987.88 1084.88,987.84C1083.23,987.83 1081.12,988.68 1080.93,985.58C1080.74,982.32 1082.82,982.75 1084.82,982.69C1092.91,982.44 1093.44,982.15 1093.61,974.23C1093.85,963.07 1093.67,951.91 1093.67,940.75C1093.7,940.74 1093.72,940.74 1093.74,940.74Z" style="fill:rgb(2,173,238);fill-rule:nonzero;"/>
        <path d="M723.55,697.98C713.96,698.08 706.03,690.52 706.06,681.31C706.09,672.03 714.52,664.07 724.39,663.99C733.64,663.91 740.95,671.02 741.05,680.19C741.15,690.27 733.68,697.87 723.55,697.98Z" style="fill:rgb(2,173,238);fill-rule:nonzero;"/>
        <path d="M1040.02,697.98C1030.7,697.89 1022.99,690.35 1023,681.34C1023.01,671.87 1031.69,663.86 1041.8,663.99C1050.98,664.11 1058.11,671.46 1057.99,680.66C1057.85,690.72 1050.22,698.08 1040.02,697.98Z" style="fill:rgb(2,173,238);fill-rule:nonzero;"/>
        <path d="M927.31,388.56C927.31,403.05 927.46,417.55 927.27,432.04C927.06,448.94 920.99,456.35 904.31,459.46C891.08,461.93 877.73,462.11 864.84,457.48C845.36,450.49 834.76,435.54 829.8,416.28C824.31,394.94 826.41,374.58 839.97,356.42C848.79,344.61 861.16,338.97 875.5,337.5C891.78,335.83 908.13,337.03 924.44,336.67C927.96,336.59 927.43,338.98 927.43,341.1C927.44,356.92 927.44,372.75 927.44,388.57C927.41,388.56 927.36,388.56 927.31,388.56Z" style="fill:rgb(2,173,238);fill-rule:nonzero;"/>
        <path d="M998.26,386.84C998.26,371.69 998.37,356.54 998.17,341.39C998.12,337.65 999.17,336.51 1002.94,336.61C1017.75,337 1032.59,336.08 1047.38,337.17C1072.66,339.03 1089.69,352.76 1096.21,377.21C1102.15,399.5 1098.68,420.56 1085.29,439.51C1075.25,453.73 1060.67,459.86 1043.7,460.87C1036.37,461.31 1029.04,460.93 1021.82,459.53C1005.1,456.29 998.53,448.33 998.27,431.29C998.26,430.96 998.27,430.62 998.27,430.29C998.26,415.81 998.26,401.33 998.26,386.84Z" style="fill:rgb(2,173,238);fill-rule:nonzero;"/>
        <path d="M927.34,257.1C927.34,270.59 927.23,284.09 927.42,297.58C927.47,300.88 926.58,301.97 923.26,301.87C912.28,301.53 901.27,302.4 890.31,301.36C875.23,299.93 861.42,295.9 853,281.73C849.63,276.06 847.76,269.86 846.79,263.4C845.2,252.8 844.69,242.15 846.94,231.6C850.9,212.95 861.35,203.05 880.22,199.88C890.6,198.14 901.07,197.18 911.53,198.97C921.84,200.74 927,206.56 927.23,217.11C927.51,230.43 927.3,243.76 927.3,257.08C927.3,257.1 927.32,257.1 927.34,257.1Z" style="fill:rgb(2,173,238);fill-rule:nonzero;"/>
        <path d="M998.31,257.6C998.31,244.95 998.28,232.29 998.32,219.64C998.36,206.98 1003.79,200.06 1016.31,198.68C1029.62,197.2 1042.99,197.93 1055.74,202.55C1070.94,208.06 1077.64,220.2 1079.81,235.34C1081.31,245.8 1080.85,256.3 1078.59,266.61C1074.1,287.15 1062.16,297.89 1040.88,300.86C1027.79,302.68 1014.6,301.44 1001.47,301.86C998.14,301.97 998.28,299.85 998.29,297.56C998.32,284.24 998.3,270.92 998.31,257.6Z" style="fill:rgb(2,173,238);fill-rule:nonzero;"/>
    </g>
</svg>
