<?xml version="1.0" encoding="UTF-8" standalone="no"?>
<!DOCTYPE svg PUBLIC "-//W3C//DTD SVG 1.1//EN" "http://www.w3.org/Graphics/SVG/1.1/DTD/svg11.dtd">
<svg width="100%" height="100%" viewBox="0 0 700 600" version="1.1" xmlns="http://www.w3.org/2000/svg" xmlns:xlink="http://www.w3.org/1999/xlink" xml:space="preserve" xmlns:serif="http://www.serif.com/" style="fill-rule:evenodd;clip-rule:evenodd;stroke-linecap:round;stroke-linejoin:round;stroke-miterlimit:1.5;">
    <g id="Layer1" transform="matrix(0.945863,0,0,0.945863,-33.8334,0.714792)">
        <g transform="matrix(0.91881,0.159073,-0.159073,0.91881,223.974,-25.113)">
            <g id="tongue">
                <path d="M323.595,289.874C323.595,289.874 308.481,330.96 317.49,339.247C326.499,347.534 361.261,338.803 380.815,359.866C396.829,377.117 397.797,400.249 396.816,407.41C394.958,420.963 366.561,441.406 387.558,460.961C432.464,502.783 480.939,427.796 454.988,394.632C463.378,395.885 470.683,399.852 475.64,413.561C478.314,420.956 479.966,431.499 471.995,445.086C482.161,434.725 486.788,410.634 482.209,394.635C486.174,397.025 491.992,413.062 489.668,431.43C485.715,462.676 473.461,485.238 451.952,502.675C438.496,513.583 414.413,518.028 389.719,513.839C351.512,507.356 332.191,487.203 328.591,470.304C321.113,435.206 252.572,419.195 252.572,419.195L219.62,366.629C219.62,366.629 207.398,293.022 227.037,284.629C281.734,261.254 323.595,289.874 323.595,289.874Z" style="fill:rgb(0,50,82);stroke:rgb(67,80,121);stroke-width:5.67px;"/>
            </g>
        </g>
        <g id="swordMouth" transform="matrix(0.927838,0.0929093,-0.0929093,0.927838,218.584,-8.58465)">
            <g id="sowrd" transform="matrix(0.999835,0.0181671,-0.0181671,0.999835,4.72878,-12.235)">
                <path d="M392.163,200.437L297.261,432.131L335.069,457.907L431.888,228.589L392.163,200.437Z" style="fill:rgb(153,153,153);stroke:rgb(104,104,104);stroke-width:5.67px;"/>
            </g>
            <g id="swordLight" transform="matrix(1,0,2.77556e-17,1,-8.73333,-8.89808)">
                <path d="M317.343,429.44L364.473,328.253L343.418,323.961L302.954,416.304L317.343,429.44Z" style="fill:rgb(204,204,204);stroke:rgb(104,104,104);stroke-width:5.67px;"/>
            </g>
            <g id="tongue1" serif:id="tongue" transform="matrix(0.982429,-0.186638,0.186638,0.982429,-75.0564,97.5061)">
                <path d="M316.746,348.295C328.261,349.489 354.146,360.356 349.533,395.384C347.86,408.087 356.315,404.197 355.193,408.411C352.62,418.081 330.589,417.452 330.589,417.452L283.888,391.935C283.888,391.935 299.966,353.763 310.106,340.7C312.89,337.114 306.633,347.247 316.746,348.295Z" style="fill:rgb(0,50,82);stroke:rgb(67,80,121);stroke-width:5.67px;"/>
            </g>
            <g id="maskTongue" transform="matrix(0.982429,-0.186638,0.186638,0.982429,-71.7993,66.5604)">
                <path d="M298.729,360.412C298.744,366.629 299.097,373.417 300.669,379.446L292.458,413.188L272.492,409.997L298.729,360.412Z" style="fill:rgb(0,50,82);"/>
            </g>
            <g transform="matrix(1.02838,-0.304131,0.304131,1.02838,-149.604,99.2783)">
                <path d="M353.066,427.356C356.244,429.87 358.345,431.942 361.859,433.405L349.096,447.327L335.897,441.819L353.066,427.356Z" style="fill:rgb(0,50,82);"/>
            </g>
        </g>
        <g id="body-horn" serif:id="body+horn" transform="matrix(0.91881,0.159073,-0.159073,0.91881,264.639,-24.4172)">
            <path id="Body" d="M298.758,313.391C296.671,319.657 289.635,328.528 279.046,339.269C293.057,339.896 306.445,337.234 319.024,330.31C320.627,337.16 317.548,344.569 313.586,352.083C331.997,348.791 349.476,342.306 365.207,329.84C364.66,337.904 360.211,345.947 354.232,353.98C375.618,344.983 396.135,331.637 415.669,313.365C413.922,322.331 410.45,330.988 404.679,339.233C416.29,338.856 426.442,334.202 435.138,325.27C435.597,334.519 432.701,344.555 427.591,355.11C440.156,350.002 451.945,343.086 462.514,333.324C463.978,340.554 462.269,348.144 459.341,355.873C468.256,352.979 476.137,346.563 482.771,335.898C484.927,342.07 484.158,347.813 481.629,353.298C493.23,350.888 502.662,345.839 510.935,339.382C512.375,345.004 512.179,350.801 510.863,356.72C522.951,354.647 525.636,350.962 533.502,344.067C536.866,360.148 534.539,366.947 524.848,380.968L554.153,363.56L565.839,350.69L559.645,336.215L563.839,329.103C543.929,334.831 545.647,318.622 552.949,306.864L537.759,307.887L452.969,258.905L426.299,230.159L347.53,168.977C347.53,168.977 332.305,151.992 325.742,150C320.513,148.414 309.585,147.23 309.585,147.23C309.585,147.23 304.058,131.863 299.592,130.672C295.407,129.557 285.476,131.806 285.476,131.806C285.476,131.806 277.793,117.088 273.465,116.162C269.093,115.225 259.295,117.234 259.295,117.234C259.295,117.234 251.283,105.212 246.851,102.645C242.574,100.166 231.686,105.111 231.686,105.111C231.686,105.111 218.247,91.173 213.861,90.438C209.798,89.758 202.238,95.587 202.238,95.587C202.238,95.587 189.633,88.954 184.572,88.927C179.512,88.901 171.874,95.427 171.874,95.427C171.874,95.427 160.717,87.839 156.359,87.328C151.906,86.806 145.55,89.864 145.55,89.864C135.079,93.29 112.679,81.559 108.1,77.475C96.689,67.298 78.232,61.214 72.806,60.141C63.617,58.324 52.2,59.787 41.75,60.772C37.316,61.189 4.44,66.073 -4.199,73.749C32.556,70.77 42.925,80.421 47.882,80.381C62.943,80.258 75.069,85.286 87.052,101.133C92.624,108.504 110.107,121.952 131.29,123.69C131.29,123.69 145.999,130.065 149.222,130.543C153.934,131.241 159.556,127.881 159.556,127.881C159.556,127.881 170.807,134.299 173.926,134.397C177.748,134.516 182.484,128.599 182.484,128.599C182.484,128.599 192.655,140.123 196.548,141.482C200.441,142.84 205.841,136.748 205.841,136.748C205.841,136.748 209.802,150.13 212.845,152.85C215.887,155.57 224.095,153.068 224.095,153.068C224.095,153.068 227.873,165.298 229.497,165.833C233.633,167.195 240.507,165.342 240.507,165.342L35.177,184.566C6.687,190.127 -77.751,238.854 -103.204,312.587L-85.41,301.84C-100.986,324.721 -145.33,404.083 -123.422,536.48L-110.141,516.955C-113.151,578.202 -64.724,684.12 -47.679,689.469L-39.512,684.103C-39.512,684.103 -13.89,711.333 2.881,715.51L530.348,636.195C530.348,636.195 525.17,612.344 511.37,599.706C468.821,560.738 370.457,585.154 311.411,587.01C194.952,590.669 105.432,546.947 86.963,445.461C81.852,417.375 98.568,339.737 140.089,336.283C161.981,334.461 197.885,296.087 246.039,276.019C249.793,274.454 257.585,284.086 257.585,284.086L261.833,292.276C268.865,294.18 275.679,294.274 282.291,292.699C279.623,301.548 274.879,310.525 268.532,319.601C279.246,320.947 289.204,318.248 298.758,313.391Z" style="fill:rgb(241,39,39);stroke:rgb(152,0,0);stroke-width:5.67px;"/>
            <g id="noes" transform="matrix(1.0631,-0.184054,0.184054,1.0631,-134.453,34.2992)">
                <path d="M579.155,366.387C571.633,364.909 563.859,366.19 567.435,376.336C568.742,380.044 573.016,386.395 573.016,386.395C574.818,378.231 579.696,377.94 585,385.867L586.205,380.934C574.039,376.8 577.515,369.654 579.155,366.387Z" style="fill:rgb(152,0,0);"/>
            </g>
            <g id="shadowTooth" transform="matrix(1.0631,-0.184054,0.184054,1.0631,-134.453,34.2992)">
                <path d="M561.838,413.469C569.36,407.434 569.87,398.435 571.728,397.617C574.818,396.256 580.32,400.866 584.615,400.806L575.958,407.411L561.838,413.469Z" style="fill:rgb(152,0,0);"/>
            </g>
            <g id="shadowTooth1" serif:id="shadowTooth" transform="matrix(1.0631,-0.184054,0.184054,1.0631,-134.453,34.2992)">
                <path d="M554.705,379.244C548.928,377.914 543.873,375.08 539.244,371.357C541.99,373.566 540.925,378.318 536.754,382.028L542.69,388.899C545.981,382.667 550.896,379.842 554.705,379.244Z" style="fill:rgb(152,0,0);"/>
            </g>
            <g id="shadowTooth2" serif:id="shadowTooth" transform="matrix(1.0631,-0.184054,0.184054,1.0631,-134.453,34.2992)">
                <path d="M518.269,379.298C521.554,374.525 523.106,367.509 532.266,369.465C517.41,366.292 507.822,356.614 497.17,352.199C501.014,359.693 497.355,363.804 495.159,367.797L500.005,372.957C501.777,370.18 502.864,366.289 505.117,365.24C511.411,362.311 518.659,367.514 512.619,372.985L518.269,379.298Z" style="fill:rgb(152,0,0);"/>
            </g>
            <g id="shadowTooth3" serif:id="shadowTooth" transform="matrix(1.0631,-0.184054,0.184054,1.0631,-134.453,34.2992)">
                <path d="M492.587,350.465C479.719,345.484 466.279,342.501 461.263,339.838C454.095,337.939 448.437,331.384 442.236,327.335C444.739,330.561 445.987,331.924 445.6,333.879C445.468,334.55 441.39,332.265 439.364,334.082C439.364,334.082 444.694,335.181 442.886,339.798C441.992,342.081 429.196,355.789 422.215,359.308C427.956,356.965 454.586,343.947 456.582,350.54C471.766,338.14 476.696,351.669 470.235,355.969C474.704,357.939 473.476,363.741 470.949,371.386C478.99,367.401 482.421,348.814 492.587,350.465Z" style="fill:rgb(152,0,0);"/>
            </g>
            <g id="shadowTooth4" serif:id="shadowTooth" transform="matrix(1.0631,-0.184054,0.184054,1.0631,-134.453,34.2992)">
                <path d="M408.96,356.935C420.196,351.156 421.092,331.371 432.228,333.412C426.863,328.348 401.943,335.804 396.669,329.775C402.966,336.972 397.96,349.013 371.135,358.801L408.96,356.935Z" style="fill:rgb(152,0,0);"/>
            </g>
            <g id="shadowTooth5" serif:id="shadowTooth" transform="matrix(1.0631,-0.184054,0.184054,1.0631,-134.453,34.2992)">
                <path d="M363.424,357.854C376.402,354.457 374.639,328.875 390.509,329.347C375.809,328.91 371.649,325.266 370.009,320.616C371.506,327.016 367.594,333.54 348.333,344.03C352.801,342.703 357.916,344.142 360.95,344.527C369.57,345.619 370.564,350.811 363.424,357.854Z" style="fill:rgb(152,0,0);"/>
            </g>
            <g id="shadowTooth6" serif:id="shadowTooth" transform="matrix(1.0631,-0.184054,0.184054,1.0631,-134.453,34.2992)">
                <path d="M369.619,320.08C366.688,307.059 344.047,311.351 340.73,281.307L332.598,286.812C325.625,287.293 313.679,300.094 332.434,300.454C339.389,302.61 336.538,308.369 334.686,312.276C347.876,300.094 350.187,311.987 342.682,323.295C354.326,320.561 338.115,339.823 332.505,341.699C350.844,345.612 357.481,308.177 369.619,320.08Z" style="fill:rgb(152,0,0);"/>
            </g>
            <g id="shadowBack" transform="matrix(1.07696,-0.0649429,0.0649429,1.07696,-119.084,5.40252)">
                <path d="M129.696,179.188C160.789,143.571 305.891,139.509 337.585,178.701C270.382,172.342 167.658,180.713 137.973,186.573C137.973,186.573 137.01,179.903 129.696,179.188Z" style="fill:rgb(152,0,0);"/>
            </g>
            <g id="shadowBack1" serif:id="shadowBack" transform="matrix(1.05669,-0.182945,0.182945,1.05669,-131.292,46.4028)">
                <path d="M-12.42,243.747C2.261,230.251 19.676,220.873 33.789,213.614C20.191,224.682 7.397,236.322 1.487,246.476L-12.42,243.747Z" style="fill:rgb(152,0,0);"/>
            </g>
            <g id="headShadow" transform="matrix(1.05669,-0.182945,0.182945,1.05669,-131.292,46.4028)">
                <path d="M491.03,271.09C491.03,271.09 496.87,290.593 499.345,293.583C501.819,296.573 514.981,299.295 514.981,299.295L504.468,288.082L491.03,271.09Z" style="fill:rgb(152,0,0);"/>
            </g>
            <g transform="matrix(1.05669,-0.182945,0.182945,1.05669,-131.292,46.4028)">
                <path d="M563.928,340.554C563.928,340.554 564.719,346.941 566.259,347.726C567.799,348.511 574.607,349.22 574.607,349.22L563.928,340.554Z" style="fill:rgb(152,0,0);"/>
            </g>
            <path id="shadowHorn" d="M240.507,165.342C240.507,165.342 252.308,183.734 255.89,184.523C264.415,186.401 289.244,197.633 302.03,194.023C314.816,190.412 330.58,184.261 329.831,180.759C329.081,177.258 300.312,189.546 308.985,167.379C315.258,151.346 291.568,164.186 291.568,164.186C256.257,177.006 284.057,154.66 282.291,145.21C281.495,140.952 263.191,149.033 263.191,149.033C225.278,160.925 261.537,139.525 256.164,130.699C253.838,126.88 242.314,133.397 242.314,133.397C213.064,147.262 233.663,130.676 229.13,115.661C227.363,109.81 219.81,120.158 214.279,122.72C202.123,128.35 204.581,118.48 207.787,107.246C210.037,99.363 194.587,111.41 190.63,113.391C182.578,117.422 184.712,112.943 179.845,99.585C176.943,91.62 161.524,104.871 158.366,106.872C146.595,114.329 154.423,103.706 151.122,97.752C147.807,91.772 133.223,98.463 127.276,100.28C121.918,101.917 113.297,100.475 108.337,98.76C98.502,95.357 93.907,83.162 90.898,80.478C79.487,70.301 72.529,68.479 67.167,67.127C57.395,64.664 46.864,61.983 36.414,62.967C31.98,63.384 8.467,68.648 -4.145,73.632C32.61,70.653 42.925,80.421 47.882,80.381C62.943,80.258 75.069,85.286 87.052,101.133C92.624,108.504 110.107,121.952 131.29,123.69C131.29,123.69 142.195,128.577 149.222,130.543C153.809,131.826 159.556,127.881 159.556,127.881C159.556,127.881 170.807,134.299 173.926,134.397C177.748,134.516 182.484,128.599 182.484,128.599C182.484,128.599 192.982,139.412 196.548,141.482C199.797,143.367 205.264,137.221 205.841,136.748C205.841,136.748 209.802,150.13 212.845,152.85C215.887,155.57 224.095,153.068 224.095,153.068C224.095,153.068 227.873,165.298 229.497,165.833C233.633,167.195 240.507,165.342 240.507,165.342Z" style="fill:rgb(152,0,0);"/>
        </g>
        <g id="scales" transform="matrix(1,0,0,1,136.625,-2.66688)">
            <path d="M139.061,511.372C139.061,511.372 155.254,514.638 153.972,523.356C153.697,525.222 162.785,535.522 162.785,535.522C157.223,542.135 142.19,538.714 140.58,540.592C139.162,542.247 132.349,545.316 130.772,546.876C125.309,552.283 107.795,540.621 107.795,540.621C107.795,540.621 116.72,539.443 124.524,537.628C129.852,536.389 139.061,511.372 139.061,511.372Z" style="fill:rgb(152,0,0);"/>
            <path d="M181.921,554.353C181.921,554.353 186.574,575.298 182.678,578.378C167.184,590.626 115.288,599.865 115.288,599.865C115.288,599.865 186.608,605.176 190.733,600.767C194.858,596.359 194.264,580.206 194.264,580.206C202.975,579.614 212.225,572.816 218.525,569.983L181.921,554.353Z" style="fill:rgb(152,0,0);"/>
            <path d="M245.218,578.505C246.019,580.932 225.962,572.153 225.962,572.153C227.485,576.927 247.215,587.416 248.404,589.7C250.713,594.135 250.07,599.079 249.805,603.018C255.366,601.633 271.659,605.747 271.659,605.747C279.355,606.528 314.761,610.591 334.9,607.531C346.2,605.814 368.297,596.451 372.559,595.195C372.559,595.195 281.655,583.467 275.21,582.178L245.218,578.505Z" style="fill:rgb(152,0,0);"/>
            <g transform="matrix(1,0,0,1,-8.60156,11.1328)">
                <path d="M-38.789,384.012C-43.941,450.135 -31.587,480.358 -21.698,480.337C-7.75,480.306 -24.832,520.151 -3.678,536.674C14.944,551.219 42.892,547.423 42.892,547.423C43.772,557.645 43.065,568.628 35.409,577.702C27.823,586.693 43.681,604.851 64.1,603.914C73.618,603.477 86.625,598.962 86.625,598.962C86.625,598.962 107.233,618.341 121.133,622.353C133.862,626.027 193.422,611.637 193.422,611.637L223.11,627.08C223.11,630.034 26.283,625.121 26.283,625.121C8.708,614.295 0.045,602.618 -7.619,590.845C-7.619,590.845 -12.03,591.965 -18.997,592.342C-45.806,548.685 -56.714,469.933 -47.497,424.085C-47.187,422.542 -59.098,437.293 -59.098,437.293C-60.219,436.196 -47.592,392.962 -38.789,384.012Z" style="fill:rgb(152,0,0);"/>
            </g>
            <path d="M176.838,191.118L188.587,241.593L95.699,406.786C94.335,407.307 100.467,446.154 97.155,454.646C96.465,456.415 70.589,450.513 69.406,448.136C68.217,445.747 83.854,434.656 83.854,434.656C83.854,434.656 82.047,409.728 60.918,402.912C52.259,400.119 39.396,390.135 39.396,390.135C39.396,390.135 64.255,393.321 62.483,383.346C59.08,364.192 36.5,322.33 36.5,322.33C36.5,322.33 55.975,332.813 66.814,328.597C85.013,321.519 68.876,257.744 68.876,257.744C76.591,265.771 83.519,274.61 100.169,273.43C107.999,263.291 108.534,247.451 109.954,232.303C109.954,232.303 109.117,246.178 125.887,247.49C139.029,248.518 146.425,207.828 151.933,204.707C166.533,196.436 176.838,191.118 176.838,191.118Z" style="fill:rgb(152,0,0);"/>
        </g>
        <g id="neck" transform="matrix(0.927838,0.0929093,-0.0929093,0.927838,218.584,-8.58465)">
            <g transform="matrix(0.906589,0.422015,-0.422015,0.906589,418.319,-10.7685)">
                <path d="M376.52,552.687L405.805,534.123C391.01,520.535 369.972,518.967 351.137,521.988C320.96,526.828 335.951,541.69 341.877,544.403C356.464,551.082 374.279,542.965 376.52,552.687Z" style="fill:rgb(255,125,37);stroke:rgb(152,0,0);stroke-width:5.67px;"/>
            </g>
            <g transform="matrix(0.874266,0.246621,-0.202545,0.718018,303.376,112.096)">
                <path d="M360.823,592.012C360.823,592.012 391.985,603.775 397.644,601.706C403.303,599.636 397.338,575.116 395.69,570.919C394.041,566.722 380.968,569.07 380.968,569.07L360.823,592.012Z" style="fill:rgb(163,68,4);"/>
            </g>
            <g transform="matrix(0.999419,0.0340934,-0.0340934,0.999419,115.429,65.5859)">
                <path d="M402.698,552.618C421.32,565.131 433.544,529.337 429.048,526.577C360.48,484.48 315.006,505.335 273.752,507.257C262.256,507.793 239.132,526.367 246.426,531.78C275.975,553.709 351.421,518.161 402.698,552.618Z" style="fill:rgb(255,125,37);stroke:rgb(152,0,0);stroke-width:5.67px;"/>
            </g>
            <g transform="matrix(1.06707,-0.106852,0.106852,1.06707,-86.8247,15.0722)">
                <path d="M360.358,589.549C360.358,589.549 381.257,600.429 386.916,598.359C392.575,596.29 397.338,575.116 395.69,570.919C394.041,566.722 380.968,569.07 380.968,569.07L360.358,589.549Z" style="fill:rgb(163,68,4);"/>
            </g>
            <g transform="matrix(0.987443,-0.157978,0.157978,0.987443,-104.854,119.465)">
                <path d="M391.474,563.472C400.667,564.412 426.164,530.695 414.027,528.637C353.735,518.416 319.676,526.427 279.598,496.852C270.338,490.018 228.966,517.916 236.26,523.329C265.81,545.258 339.177,558.12 391.474,563.472Z" style="fill:rgb(255,125,37);stroke:rgb(152,0,0);stroke-width:5.67px;"/>
            </g>
            <g transform="matrix(1.06707,-0.106852,0.106852,1.06707,-86.8247,15.0722)">
                <path d="M214.64,563.854C214.379,573.296 301.188,596.803 309.787,587.174C313.965,582.497 286.271,578.035 272.732,569.354C268.352,566.546 270.594,556.457 269.315,554.901C265.994,550.861 239.63,543.414 239.63,543.414L214.64,563.854Z" style="fill:rgb(163,68,4);"/>
            </g>
            <g transform="matrix(0.99909,-0.042654,0.042654,0.99909,-49.4177,53.5314)">
                <path d="M112.725,449.888C114.837,492.255 225.639,582.541 247.169,554.219C259.289,538.275 292.594,523.134 285.756,523.241C204.004,524.51 160.623,458.737 150.101,436.622C146.29,428.612 112.725,449.888 112.725,449.888Z" style="fill:rgb(255,125,37);stroke:rgb(152,0,0);stroke-width:5.67px;"/>
            </g>
            <g id="shadowNeck" transform="matrix(1.06707,-0.106852,0.106852,1.06707,-86.8247,15.0722)">
                <path d="M144.367,445.633C144.367,445.633 147.261,454.098 149.003,463.641C149.448,466.075 145.91,467.953 146.577,470.166C147.175,472.15 145.662,478.334 146.341,480.831C148.438,488.542 134.692,497.569 128.156,495.324C121.632,493.084 111.088,462.278 111.511,461.379L144.367,445.633Z" style="fill:rgb(163,68,4);"/>
            </g>
            <g transform="matrix(1,-2.77556e-17,4.16334e-17,1,-66.1272,-22.0865)">
                <path d="M142.197,528.414C153.752,543.167 171.44,514.503 191.652,504.739C196.32,502.484 173.795,482.222 172.281,447.596C170.335,403.113 184.135,372.992 218.329,358.304C218.329,358.304 143.232,362.096 134.063,373.659C124.894,385.221 91.7,463.938 142.197,528.414Z" style="fill:rgb(255,125,37);stroke:rgb(152,0,0);stroke-width:5.67px;"/>
            </g>
            <g id="shadowNeck1" serif:id="shadowNeck" transform="matrix(1.06707,-0.106852,0.106852,1.06707,-86.8247,15.0722)">
                <path d="M113.743,326.053C113.743,326.053 106.467,335.566 103.967,343.568C101.183,352.484 89.288,376.518 91.282,389.797C92.442,397.522 132.775,383.883 139.192,374.471C143.384,368.323 147.127,348.724 178.724,320.173L113.743,326.053Z" style="fill:rgb(163,68,4);"/>
            </g>
            <g transform="matrix(1,-5.55112e-17,0,1,-38.5723,-17.1292)">
                <path d="M196.425,247.103C110.999,276.558 88.394,370.756 95.875,373.127C128.192,383.367 132.233,354.027 172.12,360.824C189.139,363.724 178.839,357.107 202.786,356.483C223.918,355.932 196.425,247.103 196.425,247.103Z" style="fill:rgb(255,125,37);stroke:rgb(152,0,0);stroke-width:5.67px;"/>
            </g>
            <g id="shadowNeck2" serif:id="shadowNeck" transform="matrix(1.06707,-0.106852,0.106852,1.06707,-86.8247,15.0722)">
                <path d="M128.222,326.664C122.212,302.284 149.827,266.337 173.809,255.737C206.374,241.343 223.263,237.766 229.597,257.521C229.597,257.521 197.615,331.329 180.425,325.314C140.584,311.373 130.519,335.982 128.222,326.664Z" style="fill:rgb(163,68,4);"/>
            </g>
        </g>
        <g id="swordNeck" transform="matrix(0.926139,0.10855,-0.10855,0.926139,221.85,-8.07934)">
            <g transform="matrix(1,-5.55112e-17,0,1,-17.8627,15.857)">
                <path d="M296.162,435.518L237.853,571.675C237.853,571.675 244.812,581.054 250.137,583.089C254.131,584.615 269.322,589.182 275.585,584.277L337.414,451.16L296.162,435.518Z" style="fill:rgb(153,153,153);stroke:rgb(102,102,102);stroke-width:5.67px;"/>
            </g>
            <g transform="matrix(1,-5.55112e-17,0,1,-17.8627,15.857)">
                <path d="M316.264,432.943L295.208,435.243L237.853,571.675C237.853,571.675 243.52,579.73 244.819,579.44C246.362,579.096 249.423,582.349 251.541,583.059L316.264,432.943Z" style="fill:white;stroke:rgb(102,102,102);stroke-width:5.67px;"/>
            </g>
        </g>
        <g transform="matrix(0.928322,0.0879408,-0.0879408,0.928322,160.298,72.112)">
            <g id="empactNeck">
                <path d="M267.483,510.19C272.511,516.898 304.74,521.157 308.408,521.188C311.082,521.21 321.353,522.117 321.353,522.117C323.253,521.019 323.054,517.059 323.054,517.059L366.001,480.101L326.34,500.298L361.848,460.254L315.504,492.039C315.504,492.039 307.601,509.204 305.789,511.066C302.341,510.96 295.719,513.5 279.625,508.439C273.189,506.416 263.661,497.334 263.661,497.334L272.452,476.76C273.27,475.707 257.803,429.516 257.803,429.516L260.721,474.227L235.096,428.214C235.096,428.214 247.93,466.628 253.917,489.746C248.423,490.134 246.446,486.066 250.102,498.709C251.512,503.585 261.509,502.22 267.483,510.19Z" style="fill:rgb(152,0,0);"/>
            </g>
        </g>
        <g id="swordSkull" transform="matrix(0.929739,0.0714211,-0.0714211,0.929739,211.72,19.9943)">
            <g transform="matrix(1,0,0,1,-13.3639,-12.9905)">
                <path d="M396.635,194.564L442.175,106.892L479.587,138.553L435.164,224.333L396.635,194.564Z" style="fill:rgb(153,153,153);stroke:rgb(102,102,102);stroke-width:5.67px;"/>
            </g>
            <g transform="matrix(1,0,0,1,-13.3639,-12.9905)">
                <path d="M454.65,129.659L416.09,208.835L396.67,194.507L437.729,111.927L454.65,129.659Z" style="fill:rgb(244,244,244);stroke:rgb(102,102,102);stroke-width:5.67px;"/>
            </g>
        </g>
        <g id="Hilt" transform="matrix(0.931691,0.03831,-0.03831,0.931691,232.817,-10.7491)">
            <g id="Pumle" transform="matrix(0.996034,0.0889699,-0.0889699,0.996034,1.51874,-54.3195)">
                <path d="M495.131,39.971C493.575,39.298 491.003,33.896 491.003,33.896L493.198,29.599C493.198,29.599 487.283,13.517 487.835,12.126C489.458,8.038 507.782,1.514 511.978,3.165C515.233,4.446 523.496,27.719 520.344,30.589C518.919,31.887 507.844,35.688 507.844,35.688L505.787,40.566C505.787,40.566 498.383,41.38 495.131,39.971Z" style="fill:rgb(153,153,153);stroke:rgb(102,102,102);stroke-width:5.67px;"/>
            </g>
            <g id="loghtPumle" transform="matrix(0.996034,0.0889699,-0.0889699,0.996034,5.28272,-51.8283)">
                <path d="M491.117,11.821C493.228,9.428 501.879,7.261 503.626,8.2C505.374,9.139 504.775,14.387 503.176,16.781C501.447,19.371 500.723,20.978 496.865,18.811C494.338,17.391 490.09,12.986 491.117,11.821Z" style="fill:rgb(230,230,230);"/>
            </g>
            <g id="Handl" transform="matrix(0.996034,0.0889699,-0.0889699,0.996034,4.776,-51.0362)">
                <path d="M453.902,187.331L414.85,157.716L435.489,118.236L485.946,29.903C491.31,34.113 495.831,37.476 503.541,38.435L471.579,140.198L453.902,187.331Z" style="fill:rgb(67,80,121);stroke:rgb(0,50,82);stroke-width:5.67px;"/>
            </g>
            <g id="shadowHandle" transform="matrix(1.078,-0.0443261,0.0443261,1.078,-102.771,13.6939)">
                <path d="M489.054,154.85L497.645,164.623C516.507,131.009 539.871,85.6 559.155,41.693L556.138,39.358C536.369,77.276 505.097,132.922 489.054,154.85Z" style="fill:rgb(0,50,82);"/>
            </g>
            <g id="lightHandl" transform="matrix(1.02148,0.0915676,-0.0897356,1.00105,-5.88504,-52.9055)">
                <path d="M426.431,152.162L436.004,131.476L440.239,123.734L444.447,114.533L449.461,106.076L453.115,97.242L456.506,92.413L460.642,83.165L463.53,78.943L466.96,71.764L469.796,68.173L471.678,63.252L474.017,59.031L477.057,53.546L486.869,35.842L476.58,61.611L473.051,67.29L470.595,73.927L466.687,78.631L462.263,87.257L458.768,94.82L455.144,103.372L450.604,109.903L448.28,117.883L444.52,121.056L441.459,127.638L439.076,132.876L426.431,152.162Z" style="fill:rgb(190,206,255);"/>
            </g>
            <g id="Gard" transform="matrix(1,6.93889e-18,-6.93889e-18,1,-12.8934,-13.4576)">
                <path d="M378.2,143.729C393.74,144.554 415.199,158.327 426.569,181.948C453.434,185.89 473.674,203.299 480.169,217.927L479.645,224.81C487.699,221.732 489.646,218.78 492.842,214.501C481.383,203.566 458.12,183.309 458.12,183.309L417.211,152.147C417.211,152.147 391.916,137.268 377.542,129.688C373.696,135.327 372.438,139.381 372.235,147.512L378.2,143.729Z" style="fill:rgb(244,244,244);stroke:rgb(102,102,102);stroke-width:5.67px;"/>
            </g>
        </g>
        <g id="Ear" transform="matrix(0.91881,0.159073,-0.159073,0.91881,247.051,-24.893)">
            <g id="ear" transform="matrix(1,0,0,1,-7.69531,2.77604)">
                <path d="M302.374,189.171C263.596,160.635 208.851,131.144 181.387,133.908C194.252,138.909 202.394,145.843 205.699,154.757C107.697,136.996 76.676,143.93 27.254,188.759C64.029,173.131 107.282,184.689 105.805,189.347C101.892,201.693 52.266,212.061 21.903,272.317C64.589,233.429 126.876,221.663 118.682,233.707C112.514,242.772 101.049,243.905 105.958,293.888C135.497,269.017 152.695,251.357 169.437,273.31L157.141,302.039L302.374,189.171Z" style="fill:rgb(241,39,39);stroke:rgb(152,0,0);stroke-width:5.67px;"/>
            </g>
            <path id="mask" d="M251.397,175.755L311.44,199.519L293.418,234.434L194.983,293.366L182.482,253.92L251.397,175.755Z" style="fill:rgb(241,39,39);"/>
            <g transform="matrix(1.0631,-0.184054,0.184054,1.0631,-115.781,31.5844)">
                <path d="M339.106,233.541C321.507,208.436 291.556,178.201 273.924,175.26C276.543,179.482 287.212,190.791 283.612,194.916C247.492,169.686 204.276,170.26 176.417,170.905C195.253,175.304 212.852,180.064 225.29,195.057C190.093,192.973 171.754,200.923 154.559,211.899C178.969,209.046 204.164,212.986 226.748,222.024C207.126,225.364 194.601,231.313 187.051,249.902C202.172,243.172 215.369,238.991 230.232,244.11C210.995,248.804 212.64,257.883 213.633,271.243L269.765,258.896L339.106,233.541Z" style="fill:rgb(152,0,0);"/>
            </g>
        </g>
        <g id="Jaw" transform="matrix(0.80755,0.466239,-0.466239,0.80755,383.936,-79.5558)">
            <path id="jaw" d="M275.035,274.756C268.464,280.446 264.054,287.445 262.251,296.023C240.589,304.106 233.58,352.642 223.016,353.725C229.09,362.908 261.636,345.683 271.552,348.549C266.866,354.838 246.24,378.284 238.032,377.422C243.779,383.794 267.618,371.8 285.366,371.575C280.711,381.317 269.894,398.604 262.854,397.471C291.387,409.529 310.328,388.983 326.922,388.068C322.295,395.934 316.235,405.72 305.319,418.7C331.725,418.799 347.872,403.785 362.281,394.522C361.145,410.022 355.251,420.329 338.202,431.526C354.565,430.337 361.696,421.146 376.157,416.098C375.166,424.099 373.749,438.931 357.289,448.342C368.813,450.092 385.083,438.358 391.827,436.047C392.28,445.422 389.57,451.444 374.818,463.155C381.41,466.413 395.126,458.192 401.705,455.65C400.507,463.556 395.146,470.548 383.023,479.276C391.379,480.479 407.649,474.666 414.646,472.058C415.748,480.716 404.556,490.631 399.866,496.955C410.935,498.352 423.318,485.74 435.667,471.221C435.12,490.479 432.121,511.695 413.181,520.155C414.565,522.016 417.127,528.863 415.5,530.856C409.83,537.799 395.272,541.968 395.272,541.968L366.513,529.014L365.25,516.042C366.327,506.42 358.134,514.467 349.395,514.908L347.818,502.597L266.799,455.264C256.513,459.441 233.481,448.344 221.413,442.979L223.842,432.273C209.354,433.873 201.71,434.838 189.538,431.066L193.294,415.481L168.848,415.472C163.63,404.415 149.01,386.644 144.586,374.752C139.727,361.687 136.994,335.44 143.994,325.203L140.35,321.262C142.605,308.186 148.365,293.161 159.26,287.633L145.68,278.434C154.011,268.107 172.211,260.375 187.467,255.197L173.103,247.118C184.768,242.486 207.237,235.012 222.403,234.899L218.694,221.747C235.597,222.007 246.987,220.638 260.984,227.768L268.646,209.687C279.096,214.619 290.842,222.545 303.085,231.619L312.328,222.84L326.36,239.361L275.035,274.756Z" style="fill:rgb(241,39,39);stroke:rgb(152,0,0);stroke-width:5.67px;"/>
            <g transform="matrix(0.928735,-0.536205,0.536205,0.928735,-188.458,204.019)">
                <path d="M288.976,479.121C288.976,479.121 297.158,482.838 298.11,484.705C299.062,486.573 295.299,493.666 295.299,493.666L288.976,479.121Z" style="fill:rgb(152,0,0);"/>
            </g>
            <g id="shadowTooth7" serif:id="shadowTooth" transform="matrix(1.00908,-0.381859,0.381859,1.00908,-176.158,123.338)">
                <path d="M272.072,339.674C277.758,348.555 289.605,348.793 298.053,350.104C291.948,352.9 287.57,355.048 278.975,354.254C279.088,357.596 285.414,362.268 285.414,362.268C278.828,371.11 284.925,385.567 303.101,376.017L289.962,382.638L315.053,393.209C313.095,394.32 305.08,394.663 299.088,393.738C297.815,393.542 298.621,396.532 300.972,398.695C296.019,396.699 292.314,393.246 291.7,393.083C287.365,391.934 287.299,390.127 286.353,388.625C277.208,374.109 272.455,365.805 271.119,355.091C269.807,344.576 272.072,339.674 272.072,339.674Z" style="fill:rgb(152,0,0);"/>
            </g>
            <g id="shadowTooth8" serif:id="shadowTooth" transform="matrix(1.05959,-0.203251,0.203251,1.05959,-126.109,51.5469)">
                <path d="M303.1,400.051C310.952,402.002 326.442,405.004 333.747,402.851L331.319,408.99L338.92,411.068C348.094,419.42 358.151,424.491 372.437,414.334L356.003,428.294C346.597,426.765 350.154,433.214 346.843,432.124C342.614,430.733 337.675,417.458 331.836,413.918C323.603,408.926 310.88,409.105 303.1,400.051Z" style="fill:rgb(152,0,0);"/>
            </g>
            <g id="shadowTooth9" serif:id="shadowTooth" transform="matrix(0.953791,-0.504315,0.504315,0.953791,-225.215,198.773)">
                <path d="M349.376,439.209C363.645,453.713 379.686,451.551 388.651,447.202C386.052,454.579 371.844,456.05 366.313,457.608C352.596,461.472 375.91,475.317 389.329,470.621L376.893,480.408C370.529,482.837 371.866,492.64 384.905,492.011C371.609,498.168 366.717,511.414 390.136,513.072C385.606,513.845 391.766,518.84 391.766,518.84C382.38,517.885 376.085,550.973 412.435,525.688C408.516,531.992 394.966,538.329 387.359,538.628C381.237,538.869 374.306,521.057 370.938,498.645C365.594,463.075 351.358,453.023 349.376,439.209Z" style="fill:rgb(152,0,0);"/>
            </g>
            <g id="jawShadow" transform="matrix(1.04036,-0.285846,0.285846,1.04036,-154.734,75.2685)">
                <path d="M275.846,330.915C270.984,321.244 279.568,326.689 284.519,312.705C292.542,290.044 315.389,279.213 315.389,279.213C307.26,289.532 307.956,297.768 317.008,298.077C307.852,305.784 295.408,318.256 284.06,332.461C284.522,331.882 279.292,323.826 275.846,330.915Z" style="fill:rgb(152,0,0);"/>
            </g>
            <g transform="matrix(0.928735,-0.536205,0.536205,0.928735,-188.458,204.019)">
                <path d="M293.672,495.17C293.672,495.17 298.761,498.299 303.491,500.993C306.965,502.971 304.674,507.187 304.674,507.187L291.388,501.723L293.672,495.17Z" style="fill:rgb(152,0,0);"/>
            </g>
            <g transform="matrix(0.928735,-0.536205,0.536205,0.928735,-188.458,204.019)">
                <path d="M300.919,514.81C300.919,514.81 310.598,535.172 316.56,538.93C321.927,542.314 327.83,545.565 327.83,545.565L314.657,545.384L298.179,521.979L300.919,514.81Z" style="fill:rgb(152,0,0);"/>
            </g>
            <g id="jawShadow1" serif:id="jawShadow" transform="matrix(1.04036,-0.285846,0.285846,1.04036,-170.929,87.3179)">
                <path d="M238.385,393C251.715,395.99 258.323,396.055 262.083,396.99C266.141,397.999 269.936,405.062 269.936,405.062C269.936,405.062 247.323,401.317 238.385,393Z" style="fill:rgb(152,0,0);"/>
            </g>
            <g id="jawShadow2" serif:id="jawShadow" transform="matrix(1.07882,0.0137401,-0.0137401,1.07882,-39.3542,-5.1159)">
                <path d="M264.848,417.562C278.103,419.321 280.809,413.336 285.159,413.885C288.819,414.347 286.619,418.789 291.056,420.789C280.316,423.481 270.785,421.454 264.848,417.562Z" style="fill:rgb(152,0,0);"/>
            </g>
            <g id="jawShadow3" serif:id="jawShadow" transform="matrix(1.05859,-0.208406,0.208406,1.05859,-131.838,56.9371)">
                <path d="M289.847,433.265C296.58,434.535 304.674,439.43 310.432,439.284C318.207,446.078 324.545,461.479 330.133,470.976C319.68,453.212 302.597,440.487 289.847,433.265Z" style="fill:rgb(152,0,0);"/>
            </g>
            <g transform="matrix(1.05622,-0.220117,0.220117,1.05622,-145.605,65.4447)">
                <path d="M221.528,376.911C221.769,370.624 220.975,360.292 216.367,355.328C210.236,348.725 208.817,343.325 206.354,337.595C207.509,347.811 214.823,366.281 221.528,376.911Z" style="fill:rgb(152,0,0);"/>
            </g>
            <g id="jawShadow--Curve-" serif:id="jawShadow (Curve)" transform="matrix(0.996996,-0.41237,0.41237,0.996996,-205.515,133.7)">
                <path d="M223.071,373.476C223.071,373.476 234.558,371.428 237.099,372.44C239.6,373.435 242.991,381.188 242.991,381.188L223.071,373.476Z" style="fill:rgb(152,0,0);"/>
            </g>
            <g id="mask1" serif:id="mask" transform="matrix(0.995327,-0.0965603,0.0965603,0.995327,-42.5438,32.6519)">
                <path d="M313.823,240.723L343.32,239.442L350.197,245.039L301.384,272.845C293.594,267.434 290.58,267.271 273.455,270.197L313.823,240.723Z" style="fill:rgb(241,39,39);"/>
            </g>
        </g>
        <g id="Eye" transform="matrix(0.717631,0.315927,-0.315927,0.717631,355.818,-30.9099)">
            <g id="shadow" transform="matrix(0.943242,-0.41525,0.41525,0.943242,-118.889,160.594)">
                <path d="M401.281,242.635C413.413,267.634 424.852,280.749 430.522,295.655C431.896,299.267 431.661,302.285 430.838,308.542C430.368,312.113 436.691,323.138 436.691,323.138C436.238,321.6 428.34,317.931 427.842,316.497C412.784,273.059 378.512,275.64 383.006,244.023C383.606,239.807 381.083,232.022 380.025,227.268C379.474,224.788 381.295,217.66 381.295,217.66C381.295,217.66 382.872,224.627 385.084,226.586C389.799,230.761 398.779,237.479 401.281,242.635Z" style="fill:rgb(152,0,0);"/>
            </g>
            <g id="shadow1" serif:id="shadow" transform="matrix(0.943242,-0.41525,0.41525,0.943242,-118.889,160.594)">
                <path d="M446.305,318.523C446.305,318.523 445.394,310.111 446.292,308.115C451.223,297.162 442.007,288.616 442.007,288.616C442.007,288.616 443.969,305.786 440.533,310.098C439.169,311.809 446.305,318.523 446.305,318.523Z" style="fill:rgb(152,0,0);"/>
            </g>
            <g id="shadow2" serif:id="shadow" transform="matrix(0.943242,-0.41525,0.41525,0.943242,-118.889,160.594)">
                <path d="M409.586,229.019C410.479,235.788 430.696,242.877 439.295,276.364C439.581,277.478 442.937,281.214 444.442,277.816C445.146,276.229 456.286,285.196 464.837,295.8C459.845,282.86 450.832,270.418 443.641,264.4C437.973,259.658 430.296,239.572 425.061,235.37C422.172,233.051 408.857,223.493 409.586,229.019Z" style="fill:rgb(152,0,0);"/>
            </g>
            <g id="shadow3" serif:id="shadow" transform="matrix(0.368278,-0.162129,0.162129,0.368278,232.953,225.282)">
                <path d="M472.405,304.29C472.425,299.26 433.64,255.381 442.239,288.868C442.525,289.982 444.14,314.76 446.372,317.731C447.924,319.798 491.899,334.282 492.556,333.783C493.714,332.903 472.357,316.403 472.405,304.29Z" style="fill:rgb(152,0,0);"/>
            </g>
            <g id="eye" transform="matrix(1.39611,0,-1.17544e-16,1.39611,-165.318,-103.484)">
                <path d="M374.907,235.418L383.772,240.982C383.772,240.982 388.617,245.877 397.63,250.85C401.62,253.052 408.27,259.119 409.097,265.8C390.988,252.164 384.773,254.031 380.596,253.176C374.072,251.84 374.907,235.418 374.907,235.418Z" style="fill:rgb(255,125,37);stroke:rgb(152,0,0);stroke-width:4.83px;"/>
            </g>
        </g>
        <g transform="matrix(0.925758,0.11175,-0.11175,0.925758,209.03,-8.38984)">
            <g id="empactHead">
                <path d="M398.827,187.066C409.628,202.009 439.551,219.323 442.218,217.379L445.123,209.755C467.426,202.568 507.94,189.142 507.94,189.142L459.271,216.404L503.977,205.911C503.977,205.911 468.182,221.307 455.685,230.061C455.685,230.061 458.071,233.633 459.857,236.427C460.961,238.153 464.001,238.915 462.989,239.479C456.116,243.308 450.097,235.057 450.097,235.057C426.753,230.201 390.726,199.246 387.604,196.634C387.604,196.634 377.121,191.985 375,188.667C373.618,186.505 372.204,179.426 375.924,180.206C379,180.852 382.983,186.419 382.617,185.952C382.633,167.235 381.198,131.036 381.198,131.036L391.506,172.355L393.031,117.948L402.601,175.974C402.601,175.974 399.078,186.881 398.827,187.066Z" style="fill:rgb(152,0,0);"/>
            </g>
        </g>
    </g>
</svg>
